<svg version="1.1" viewBox="0.0 0.0 600.0 371.0" fill="none" stroke="none" stroke-linecap="square" stroke-miterlimit="10" width="600" height="371" xmlns:xlink="http://www.w3.org/1999/xlink" xmlns="http://www.w3.org/2000/svg"><path fill="#ffffff" d="M0 0L600.0 0L600.0 371.0L0 371.0L0 0Z" fill-rule="nonzero"/><path stroke="#333333" stroke-width="1.0" stroke-linecap="butt" d="M48.5 300.5L581.5 300.5" fill-rule="nonzero"/><path stroke="#cccccc" stroke-width="1.0" stroke-linecap="butt" d="M48.5 247.5L581.5 247.5" fill-rule="nonzero"/><path stroke="#cccccc" stroke-width="1.0" stroke-linecap="butt" d="M48.5 194.5L581.5 194.5" fill-rule="nonzero"/><path stroke="#cccccc" stroke-width="1.0" stroke-linecap="butt" d="M48.5 141.5L581.5 141.5" fill-rule="nonzero"/><path stroke="#cccccc" stroke-width="1.0" stroke-linecap="butt" d="M48.5 88.5L581.5 88.5" fill-rule="nonzero"/><clipPath id="id_0"><path d="M48.55 88.28333L581.45 88.28333L581.45 300.45L48.55 300.45L48.55 88.28333Z" clip-rule="nonzero"/></clipPath><path stroke="#000000" stroke-width="2.0" stroke-linecap="butt" stroke-opacity="0.0" clip-path="url(#id_0)" d="M138.0 300.0L106.0 300.0L106.0 104.0C106.0 102.89543 106.89543 102.0 108.0 102.0L136.0 102.0C137.10457 102.0 138.0 102.89543 138.0 104.0Z" fill-rule="nonzero"/><path fill="#4285f4" clip-path="url(#id_0)" d="M138.0 300.0L106.0 300.0L106.0 104.0C106.0 102.89543 106.89543 102.0 108.0 102.0L136.0 102.0C137.10457 102.0 138.0 102.89543 138.0 104.0Z" fill-rule="nonzero"/><path stroke="#000000" stroke-width="2.0" stroke-linecap="butt" stroke-opacity="0.0" clip-path="url(#id_0)" d="M297.0 300.0L265.0 300.0L265.0 105.0C265.0 103.89543 265.89542 103.0 267.0 103.0L295.0 103.0C296.10458 103.0 297.0 103.89543 297.0 105.0Z" fill-rule="nonzero"/><path fill="#4285f4" clip-path="url(#id_0)" d="M297.0 300.0L265.0 300.0L265.0 105.0C265.0 103.89543 265.89542 103.0 267.0 103.0L295.0 103.0C296.10458 103.0 297.0 103.89543 297.0 105.0Z" fill-rule="nonzero"/><path stroke="#000000" stroke-width="2.0" stroke-linecap="butt" stroke-opacity="0.0" clip-path="url(#id_0)" d="M456.0 300.0L424.0 300.0L424.0 101.0C424.0 99.89543 424.89542 99.0 426.0 99.0L454.0 99.0C455.10458 99.0 456.0 99.89543 456.0 101.0Z" fill-rule="nonzero"/><path fill="#4285f4" clip-path="url(#id_0)" d="M456.0 300.0L424.0 300.0L424.0 101.0C424.0 99.89543 424.89542 99.0 426.0 99.0L454.0 99.0C455.10458 99.0 456.0 99.89543 456.0 101.0Z" fill-rule="nonzero"/><path stroke="#000000" stroke-width="2.0" stroke-linecap="butt" stroke-opacity="0.0" clip-path="url(#id_0)" d="M172.0 300.0L140.0 300.0L140.0 101.0C140.0 99.89543 140.89543 99.0 142.0 99.0L170.0 99.0C171.10457 99.0 172.0 99.89543 172.0 101.0Z" fill-rule="nonzero"/><path fill="#ea4335" clip-path="url(#id_0)" d="M172.0 300.0L140.0 300.0L140.0 101.0C140.0 99.89543 140.89543 99.0 142.0 99.0L170.0 99.0C171.10457 99.0 172.0 99.89543 172.0 101.0Z" fill-rule="nonzero"/><path stroke="#000000" stroke-width="2.0" stroke-linecap="butt" stroke-opacity="0.0" clip-path="url(#id_0)" d="M331.0 300.0L299.0 300.0L299.0 101.0C299.0 99.89543 299.89542 99.0 301.0 99.0L329.0 99.0C330.10458 99.0 331.0 99.89543 331.0 101.0Z" fill-rule="nonzero"/><path fill="#ea4335" clip-path="url(#id_0)" d="M331.0 300.0L299.0 300.0L299.0 101.0C299.0 99.89543 299.89542 99.0 301.0 99.0L329.0 99.0C330.10458 99.0 331.0 99.89543 331.0 101.0Z" fill-rule="nonzero"/><path stroke="#000000" stroke-width="2.0" stroke-linecap="butt" stroke-opacity="0.0" clip-path="url(#id_0)" d="M490.0 300.0L458.0 300.0L458.0 99.0C458.0 97.89543 458.89542 97.0 460.0 97.0L488.0 97.0C489.10458 97.0 490.0 97.89543 490.0 99.0Z" fill-rule="nonzero"/><path fill="#ea4335" clip-path="url(#id_0)" d="M490.0 300.0L458.0 300.0L458.0 99.0C458.0 97.89543 458.89542 97.0 460.0 97.0L488.0 97.0C489.10458 97.0 490.0 97.89543 490.0 99.0Z" fill-rule="nonzero"/><path stroke="#000000" stroke-width="2.0" stroke-linecap="butt" stroke-opacity="0.0" clip-path="url(#id_0)" d="M206.0 300.0L174.0 300.0L174.0 107.0C174.0 105.89543 174.89543 105.0 176.0 105.0L204.0 105.0C205.10457 105.0 206.0 105.89543 206.0 107.0Z" fill-rule="nonzero"/><path fill="#fbbc04" clip-path="url(#id_0)" d="M206.0 300.0L174.0 300.0L174.0 107.0C174.0 105.89543 174.89543 105.0 176.0 105.0L204.0 105.0C205.10457 105.0 206.0 105.89543 206.0 107.0Z" fill-rule="nonzero"/><path stroke="#000000" stroke-width="2.0" stroke-linecap="butt" stroke-opacity="0.0" clip-path="url(#id_0)" d="M365.0 300.0L333.0 300.0L333.0 108.0C333.0 106.89543 333.89542 106.0 335.0 106.0L363.0 106.0C364.10458 106.0 365.0 106.89543 365.0 108.0Z" fill-rule="nonzero"/><path fill="#fbbc04" clip-path="url(#id_0)" d="M365.0 300.0L333.0 300.0L333.0 108.0C333.0 106.89543 333.89542 106.0 335.0 106.0L363.0 106.0C364.10458 106.0 365.0 106.89543 365.0 108.0Z" fill-rule="nonzero"/><path stroke="#000000" stroke-width="2.0" stroke-linecap="butt" stroke-opacity="0.0" clip-path="url(#id_0)" d="M524.0 300.0L492.0 300.0L492.0 102.0C492.0 100.89543 492.89542 100.0 494.0 100.0L522.0 100.0C523.10455 100.0 524.0 100.89543 524.0 102.0Z" fill-rule="nonzero"/><path fill="#fbbc04" clip-path="url(#id_0)" d="M524.0 300.0L492.0 300.0L492.0 102.0C492.0 100.89543 492.89542 100.0 494.0 100.0L522.0 100.0C523.10455 100.0 524.0 100.89543 524.0 102.0Z" fill-rule="nonzero"/><path fill="#000000" d="M296.10938 349.45L296.10938 341.8719L293.28125 341.8719L293.28125 340.85626L300.09375 340.85626L300.09375 341.8719L297.25 341.8719L297.25 349.45L296.10938 349.45ZM300.96875 349.45L300.96875 340.85626L302.09375 340.85626L302.09375 344.3875L306.5625 344.3875L306.5625 340.85626L307.70312 340.85626L307.70312 349.45L306.5625 349.45L306.5625 345.40314L302.09375 345.40314L302.09375 349.45L300.96875 349.45ZM308.8125 351.84064L308.8125 351.075L315.8125 351.075L315.8125 351.84064L308.8125 351.84064ZM317.125 349.45L317.125 340.85626L318.25 340.85626L318.25 349.45L317.125 349.45ZM319.57812 345.2625Q319.57812 343.1219 320.71875 341.91876Q321.875 340.7 323.6875 340.7Q324.89062 340.7 325.84375 341.27814Q326.79688 341.84064 327.29688 342.85626Q327.79688 343.8719 327.79688 345.16876Q327.79688 346.46564 327.26562 347.4969Q326.73438 348.52814 325.76562 349.0594Q324.8125 349.59064 323.6875 349.59064Q322.46875 349.59064 321.51562 349.0125Q320.5625 348.41876 320.0625 347.41876Q319.57812 346.40314 319.57812 345.2625ZM320.75 345.27814Q320.75 346.84064 321.57812 347.73126Q322.42188 348.6219 323.6875 348.6219Q324.96875 348.6219 325.79688 347.73126Q326.625 346.825 326.625 345.15314Q326.625 344.10626 326.26562 343.325Q325.92188 342.54376 325.23438 342.1219Q324.54688 341.6844 323.70312 341.6844Q322.5 341.6844 321.625 342.5125Q320.75 343.34064 320.75 345.27814ZM334.5625 340.85626L335.70312 340.85626L335.70312 345.825Q335.70312 347.1219 335.40625 347.8875Q335.10938 348.6375 334.34375 349.1219Q333.57812 349.59064 332.34375 349.59064Q331.14062 349.59064 330.35938 349.1844Q329.59375 348.7625 329.26562 347.98126Q328.9375 347.1844 328.9375 345.825L328.9375 340.85626L330.07812 340.85626L330.07812 345.8094Q330.07812 346.9344 330.28125 347.46564Q330.5 347.9969 331.0 348.29376Q331.51562 348.575 332.25 348.575Q333.5 348.575 334.03125 348.0125Q334.5625 347.4344 334.5625 345.8094L334.5625 340.85626Z" fill-rule="nonzero"/><path fill="#000000" d="M36.05 300.21564Q36.05 298.6844 36.3625 297.7625Q36.675 296.825 37.284374 296.325Q37.909374 295.825 38.846874 295.825Q39.534374 295.825 40.05 296.10626Q40.58125 296.3875 40.925 296.91876Q41.26875 297.4344 41.45625 298.1844Q41.64375 298.9344 41.64375 300.21564Q41.64375 301.73126 41.33125 302.65314Q41.034374 303.575 40.409374 304.09064Q39.8 304.59064 38.846874 304.59064Q37.6125 304.59064 36.89375 303.7Q36.05 302.6375 36.05 300.21564ZM37.128124 300.21564Q37.128124 302.325 37.628124 303.02814Q38.128124 303.73126 38.846874 303.73126Q39.58125 303.73126 40.065624 303.02814Q40.565624 302.325 40.565624 300.21564Q40.565624 298.09064 40.065624 297.40314Q39.58125 296.7 38.83125 296.7Q38.1125 296.7 37.675 297.3094Q37.128124 298.09064 37.128124 300.21564Z" fill-rule="nonzero"/><path fill="#000000" d="M19.05 247.17397Q19.05 245.64272 19.3625 244.72084Q19.675 243.78334 20.284374 243.28334Q20.909374 242.78334 21.846874 242.78334Q22.534374 242.78334 23.05 243.06459Q23.58125 243.34584 23.925 243.87709Q24.26875 244.39272 24.45625 245.14272Q24.64375 245.89272 24.64375 247.17397Q24.64375 248.68959 24.33125 249.61147Q24.034374 250.53334 23.409374 251.04897Q22.8 251.54897 21.846874 251.54897Q20.6125 251.54897 19.89375 250.65834Q19.05 249.59584 19.05 247.17397ZM20.128124 247.17397Q20.128124 249.28334 20.628124 249.98647Q21.128124 250.68959 21.846874 250.68959Q22.58125 250.68959 23.065624 249.98647Q23.565624 249.28334 23.565624 247.17397Q23.565624 245.04897 23.065624 244.36147Q22.58125 243.65834 21.83125 243.65834Q21.1125 243.65834 20.675 244.26772Q20.128124 245.04897 20.128124 247.17397ZM26.6125 251.40834L26.6125 250.20522L27.815624 250.20522L27.815624 251.40834Q27.815624 252.06459 27.58125 252.47084Q27.346874 252.89272 26.846874 253.11147L26.55 252.65834Q26.878124 252.51772 27.034374 252.22084Q27.190624 251.93959 27.221874 251.40834L26.6125 251.40834ZM34.596874 250.39272L34.596874 251.40834L28.909374 251.40834Q28.909374 251.03334 29.034374 250.67397Q29.253124 250.09584 29.721874 249.53334Q30.20625 248.97084 31.1125 248.23647Q32.51875 247.08022 33.003124 246.40834Q33.503124 245.73647 33.503124 245.14272Q33.503124 244.51772 33.05 244.09584Q32.596874 243.65834 31.878124 243.65834Q31.1125 243.65834 30.659374 244.11147Q30.20625 244.56459 30.190624 245.37709L29.1125 245.26772Q29.221874 244.04897 29.940624 243.42397Q30.675 242.78334 31.909374 242.78334Q33.14375 242.78334 33.8625 243.47084Q34.58125 244.15834 34.58125 245.17397Q34.58125 245.68959 34.3625 246.18959Q34.159374 246.67397 33.659374 247.23647Q33.175 247.78334 32.05 248.73647Q31.096874 249.53334 30.815624 249.83022Q30.55 250.11147 30.378124 250.39272L34.596874 250.39272ZM36.05 249.15834L37.159374 249.06459Q37.284374 249.87709 37.721874 250.28334Q38.175 250.68959 38.815624 250.68959Q39.565624 250.68959 40.096874 250.11147Q40.628124 249.53334 40.628124 248.59584Q40.628124 247.68959 40.1125 247.17397Q39.6125 246.64272 38.784374 246.64272Q38.284374 246.64272 37.8625 246.87709Q37.45625 247.11147 37.221874 247.47084L36.2375 247.34584L37.065624 242.93959L41.346874 242.93959L41.346874 243.93959L37.909374 243.93959L37.45625 246.25209Q38.221874 245.70522 39.065624 245.70522Q40.190624 245.70522 40.95625 246.48647Q41.7375 247.26772 41.7375 248.50209Q41.7375 249.65834 41.065624 250.51772Q40.2375 251.54897 38.815624 251.54897Q37.64375 251.54897 36.89375 250.89272Q36.159374 250.23647 36.05 249.15834Z" fill-rule="nonzero"/><path fill="#000000" d="M26.05 194.1323Q26.05 192.60104 26.3625 191.67917Q26.675 190.74167 27.284374 190.24167Q27.909374 189.74167 28.846874 189.74167Q29.534374 189.74167 30.05 190.02292Q30.58125 190.30417 30.925 190.83542Q31.26875 191.35104 31.45625 192.10104Q31.64375 192.85104 31.64375 194.1323Q31.64375 195.64792 31.33125 196.5698Q31.034374 197.49167 30.409374 198.0073Q29.8 198.5073 28.846874 198.5073Q27.6125 198.5073 26.89375 197.61667Q26.05 196.55417 26.05 194.1323ZM27.128124 194.1323Q27.128124 196.24167 27.628124 196.9448Q28.128124 197.64792 28.846874 197.64792Q29.58125 197.64792 30.065624 196.9448Q30.565624 196.24167 30.565624 194.1323Q30.565624 192.0073 30.065624 191.3198Q29.58125 190.61667 28.83125 190.61667Q28.1125 190.61667 27.675 191.22604Q27.128124 192.0073 27.128124 194.1323ZM33.6125 198.36667L33.6125 197.16354L34.815624 197.16354L34.815624 198.36667Q34.815624 199.02292 34.58125 199.42917Q34.346874 199.85104 33.846874 200.0698L33.55 199.61667Q33.878124 199.47604 34.034374 199.17917Q34.190624 198.89792 34.221874 198.36667L33.6125 198.36667ZM36.05 196.11667L37.159374 196.02292Q37.284374 196.83542 37.721874 197.24167Q38.175 197.64792 38.815624 197.64792Q39.565624 197.64792 40.096874 197.0698Q40.628124 196.49167 40.628124 195.55417Q40.628124 194.64792 40.1125 194.1323Q39.6125 193.60104 38.784374 193.60104Q38.284374 193.60104 37.8625 193.83542Q37.45625 194.0698 37.221874 194.42917L36.2375 194.30417L37.065624 189.89792L41.346874 189.89792L41.346874 190.89792L37.909374 190.89792L37.45625 193.21042Q38.221874 192.66354 39.065624 192.66354Q40.190624 192.66354 40.95625 193.4448Q41.7375 194.22604 41.7375 195.46042Q41.7375 196.61667 41.065624 197.47604Q40.2375 198.5073 38.815624 198.5073Q37.64375 198.5073 36.89375 197.85104Q36.159374 197.1948 36.05 196.11667Z" fill-rule="nonzero"/><path fill="#000000" d="M19.05 141.09062Q19.05 139.55937 19.3625 138.6375Q19.675 137.7 20.284374 137.2Q20.909374 136.7 21.846874 136.7Q22.534374 136.7 23.05 136.98125Q23.58125 137.2625 23.925 137.79375Q24.26875 138.30937 24.45625 139.05937Q24.64375 139.80937 24.64375 141.09062Q24.64375 142.60625 24.33125 143.52812Q24.034374 144.45 23.409374 144.96562Q22.8 145.46562 21.846874 145.46562Q20.6125 145.46562 19.89375 144.575Q19.05 143.5125 19.05 141.09062ZM20.128124 141.09062Q20.128124 143.2 20.628124 143.90312Q21.128124 144.60625 21.846874 144.60625Q22.58125 144.60625 23.065624 143.90312Q23.565624 143.2 23.565624 141.09062Q23.565624 138.96562 23.065624 138.27812Q22.58125 137.575 21.83125 137.575Q21.1125 137.575 20.675 138.18437Q20.128124 138.96562 20.128124 141.09062ZM26.6125 145.325L26.6125 144.12187L27.815624 144.12187L27.815624 145.325Q27.815624 145.98125 27.58125 146.3875Q27.346874 146.80937 26.846874 147.02812L26.55 146.575Q26.878124 146.43437 27.034374 146.1375Q27.190624 145.85625 27.221874 145.325L26.6125 145.325ZM29.1125 137.85625L29.1125 136.84062L34.675 136.84062L34.675 137.66875Q33.8625 138.54375 33.05 139.99687Q32.253124 141.43437 31.815624 142.96562Q31.4875 144.04375 31.409374 145.325L30.315624 145.325Q30.33125 144.30937 30.70625 142.87187Q31.096874 141.43437 31.8 140.10625Q32.51875 138.77812 33.33125 137.85625L29.1125 137.85625ZM36.05 143.075L37.159374 142.98125Q37.284374 143.79375 37.721874 144.2Q38.175 144.60625 38.815624 144.60625Q39.565624 144.60625 40.096874 144.02812Q40.628124 143.45 40.628124 142.5125Q40.628124 141.60625 40.1125 141.09062Q39.6125 140.55937 38.784374 140.55937Q38.284374 140.55937 37.8625 140.79375Q37.45625 141.02812 37.221874 141.3875L36.2375 141.2625L37.065624 136.85625L41.346874 136.85625L41.346874 137.85625L37.909374 137.85625L37.45625 140.16875Q38.221874 139.62187 39.065624 139.62187Q40.190624 139.62187 40.95625 140.40312Q41.7375 141.18437 41.7375 142.41875Q41.7375 143.575 41.065624 144.43437Q40.2375 145.46562 38.815624 145.46562Q37.64375 145.46562 36.89375 144.80937Q36.159374 144.15312 36.05 143.075Z" fill-rule="nonzero"/><path fill="#000000" d="M40.01875 92.28333L38.971874 92.28333L38.971874 85.56458Q38.58125 85.92396 37.95625 86.29896Q37.346874 86.65833 36.8625 86.83021L36.8625 85.81458Q37.7375 85.39271 38.39375 84.81458Q39.065624 84.22083 39.346874 83.65833L40.01875 83.65833L40.01875 92.28333Z" fill-rule="nonzero"/><path fill="#000000" d="M147.92537 313.21564Q147.92537 311.6844 148.23787 310.7625Q148.55037 309.825 149.15974 309.325Q149.78474 308.825 150.72224 308.825Q151.40974 308.825 151.92537 309.10626Q152.45662 309.3875 152.80037 309.91876Q153.14412 310.4344 153.33162 311.1844Q153.51912 311.9344 153.51912 313.21564Q153.51912 314.73126 153.20662 315.65314Q152.90974 316.575 152.28474 317.09064Q151.67537 317.59064 150.72224 317.59064Q149.48787 317.59064 148.76912 316.7Q147.92537 315.6375 147.92537 313.21564ZM149.0035 313.21564Q149.0035 315.325 149.5035 316.02814Q150.0035 316.73126 150.72224 316.73126Q151.45662 316.73126 151.941 316.02814Q152.441 315.325 152.441 313.21564Q152.441 311.09064 151.941 310.40314Q151.45662 309.7 150.70662 309.7Q149.98787 309.7 149.55037 310.3094Q149.0035 311.09064 149.0035 313.21564ZM155.51912 317.45L155.51912 316.2469L156.72224 316.2469L156.72224 317.45L155.51912 317.45ZM157.92537 315.1844L158.98787 315.04376Q159.15974 315.9344 159.59724 316.34064Q160.03474 316.73126 160.65974 316.73126Q161.40974 316.73126 161.92537 316.21564Q162.441 315.7 162.441 314.9344Q162.441 314.21564 161.95662 313.7469Q161.48787 313.2625 160.7535 313.2625Q160.45662 313.2625 160.0035 313.3875L160.1285 312.45Q160.23787 312.46564 160.30037 312.46564Q160.97224 312.46564 161.5035 312.1219Q162.05037 311.7625 162.05037 311.02814Q162.05037 310.45 161.65974 310.075Q161.26912 309.6844 160.64412 309.6844Q160.03474 309.6844 159.61287 310.075Q159.20662 310.46564 159.09724 311.23126L158.03474 311.04376Q158.22224 309.9969 158.90974 309.41876Q159.59724 308.825 160.61287 308.825Q161.316 308.825 161.90974 309.1375Q162.5035 309.4344 162.816 309.95Q163.1285 310.46564 163.1285 311.0594Q163.1285 311.60626 162.83162 312.075Q162.53474 312.52814 161.95662 312.79376Q162.70662 312.96564 163.1285 313.52814Q163.55037 314.075 163.55037 314.91876Q163.55037 316.04376 162.72224 316.825Q161.90974 317.60626 160.65974 317.60626Q159.53474 317.60626 158.78474 316.9344Q158.03474 316.2469 157.92537 315.1844Z" fill-rule="nonzero"/><path fill="#000000" d="M307.0 313.21564Q307.0 311.6844 307.3125 310.7625Q307.625 309.825 308.23438 309.325Q308.85938 308.825 309.79688 308.825Q310.48438 308.825 311.0 309.10626Q311.53125 309.3875 311.875 309.91876Q312.21875 310.4344 312.40625 311.1844Q312.59375 311.9344 312.59375 313.21564Q312.59375 314.73126 312.28125 315.65314Q311.98438 316.575 311.35938 317.09064Q310.75 317.59064 309.79688 317.59064Q308.5625 317.59064 307.84375 316.7Q307.0 315.6375 307.0 313.21564ZM308.07812 313.21564Q308.07812 315.325 308.57812 316.02814Q309.07812 316.73126 309.79688 316.73126Q310.53125 316.73126 311.01562 316.02814Q311.51562 315.325 311.51562 313.21564Q311.51562 311.09064 311.01562 310.40314Q310.53125 309.7 309.78125 309.7Q309.0625 309.7 308.625 310.3094Q308.07812 311.09064 308.07812 313.21564ZM314.59375 317.45L314.59375 316.2469L315.79688 316.2469L315.79688 317.45L314.59375 317.45ZM317.0 315.2L318.10938 315.10626Q318.23438 315.91876 318.67188 316.325Q319.125 316.73126 319.76562 316.73126Q320.51562 316.73126 321.04688 316.15314Q321.57812 315.575 321.57812 314.6375Q321.57812 313.73126 321.0625 313.21564Q320.5625 312.6844 319.73438 312.6844Q319.23438 312.6844 318.8125 312.91876Q318.40625 313.15314 318.17188 313.5125L317.1875 313.3875L318.01562 308.98126L322.29688 308.98126L322.29688 309.98126L318.85938 309.98126L318.40625 312.29376Q319.17188 311.7469 320.01562 311.7469Q321.14062 311.7469 321.90625 312.52814Q322.6875 313.3094 322.6875 314.54376Q322.6875 315.7 322.01562 316.5594Q321.1875 317.59064 319.76562 317.59064Q318.59375 317.59064 317.84375 316.9344Q317.10938 316.27814 317.0 315.2Z" fill-rule="nonzero"/><path fill="#000000" d="M466.07462 313.21564Q466.07462 311.6844 466.38712 310.7625Q466.69962 309.825 467.309 309.325Q467.934 308.825 468.8715 308.825Q469.559 308.825 470.07462 309.10626Q470.60587 309.3875 470.94962 309.91876Q471.29337 310.4344 471.48087 311.1844Q471.66837 311.9344 471.66837 313.21564Q471.66837 314.73126 471.35587 315.65314Q471.059 316.575 470.434 317.09064Q469.82462 317.59064 468.8715 317.59064Q467.63712 317.59064 466.91837 316.7Q466.07462 315.6375 466.07462 313.21564ZM467.15274 313.21564Q467.15274 315.325 467.65274 316.02814Q468.15274 316.73126 468.8715 316.73126Q469.60587 316.73126 470.09024 316.02814Q470.59024 315.325 470.59024 313.21564Q470.59024 311.09064 470.09024 310.40314Q469.60587 309.7 468.85587 309.7Q468.13712 309.7 467.69962 310.3094Q467.15274 311.09064 467.15274 313.21564ZM473.66837 317.45L473.66837 316.2469L474.8715 316.2469L474.8715 317.45L473.66837 317.45ZM476.13712 309.98126L476.13712 308.96564L481.69962 308.96564L481.69962 309.79376Q480.88712 310.66876 480.07462 312.1219Q479.27774 313.5594 478.84024 315.09064Q478.51212 316.16876 478.434 317.45L477.34024 317.45Q477.35587 316.4344 477.73087 314.9969Q478.1215 313.5594 478.82462 312.23126Q479.54337 310.90314 480.35587 309.98126L476.13712 309.98126Z" fill-rule="nonzero"/><path fill="#4285f4" d="M203.5 56.916668C203.5 56.364384 203.94771 55.916668 204.5 55.916668L214.5 55.916668C215.05229 55.916668 215.5 56.364384 215.5 56.916668L215.5 66.916664C215.5 67.46895 215.05229 67.916664 214.5 67.916664L204.5 67.916664C203.94771 67.916664 203.5 67.46895 203.5 66.916664Z" fill-rule="nonzero"/><path fill="#1a1a1a" d="M224.48438 65.916664L224.48438 57.322914L230.28125 57.322914L230.28125 58.33854L225.625 58.33854L225.625 60.99479L229.65625 60.99479L229.65625 62.010414L225.625 62.010414L225.625 65.916664L224.48438 65.916664ZM234.96875 65.916664L233.92188 65.916664L233.92188 59.197914Q233.53125 59.55729 232.90625 59.93229Q232.29688 60.291664 231.8125 60.46354L231.8125 59.447914Q232.6875 59.02604 233.34375 58.447914Q234.01562 57.854164 234.29688 57.291664L234.96875 57.291664L234.96875 65.916664Z" fill-rule="nonzero"/><path fill="#ea4335" d="M253.5 56.916668C253.5 56.364384 253.94771 55.916668 254.5 55.916668L264.5 55.916668C265.05228 55.916668 265.5 56.364384 265.5 56.916668L265.5 66.916664C265.5 67.46895 265.05228 67.916664 264.5 67.916664L254.5 67.916664C253.94771 67.916664 253.5 67.46895 253.5 66.916664Z" fill-rule="nonzero"/><path fill="#1a1a1a" d="M274.42188 65.916664L274.42188 57.322914L277.67188 57.322914Q278.51562 57.322914 278.96875 57.40104Q279.60938 57.510414 280.03125 57.80729Q280.46875 58.104164 280.71875 58.635414Q280.98438 59.166664 280.98438 59.80729Q280.98438 60.90104 280.28125 61.666664Q279.59375 62.416664 277.76562 62.416664L275.5625 62.416664L275.5625 65.916664L274.42188 65.916664ZM275.5625 61.416664L277.78125 61.416664Q278.89062 61.416664 279.34375 61.010414Q279.8125 60.58854 279.8125 59.83854Q279.8125 59.30729 279.53125 58.93229Q279.26562 58.541664 278.82812 58.416664Q278.53125 58.33854 277.76562 58.33854L275.5625 58.33854L275.5625 61.416664ZM282.28125 65.916664L282.28125 59.697914L283.23438 59.697914L283.23438 60.635414Q283.59375 59.979164 283.89062 59.77604Q284.20312 59.55729 284.57812 59.55729Q285.10938 59.55729 285.65625 59.885414L285.29688 60.86979Q284.90625 60.635414 284.53125 60.635414Q284.17188 60.635414 283.89062 60.854164Q283.625 61.05729 283.51562 61.43229Q283.32812 61.99479 283.32812 62.65104L283.32812 65.916664L282.28125 65.916664ZM290.54688 63.916664L291.64062 64.041664Q291.39062 64.99479 290.6875 65.52604Q289.98438 66.05729 288.90625 66.05729Q287.54688 66.05729 286.73438 65.21354Q285.9375 64.36979 285.9375 62.854164Q285.9375 61.291664 286.75 60.43229Q287.5625 59.55729 288.84375 59.55729Q290.09375 59.55729 290.875 60.40104Q291.67188 61.24479 291.67188 62.791664Q291.67188 62.885414 291.67188 63.072914L287.03125 63.072914Q287.09375 64.104164 287.60938 64.65104Q288.125 65.18229 288.90625 65.18229Q289.48438 65.18229 289.89062 64.885414Q290.3125 64.572914 290.54688 63.916664ZM287.09375 62.21354L290.5625 62.21354Q290.5 61.416664 290.17188 61.02604Q289.65625 60.416664 288.85938 60.416664Q288.125 60.416664 287.625 60.90104Q287.14062 61.385414 287.09375 62.21354ZM297.35938 63.635414L298.39062 63.77604Q298.21875 64.83854 297.51562 65.447914Q296.8125 66.05729 295.79688 66.05729Q294.51562 66.05729 293.73438 65.229164Q292.96875 64.385414 292.96875 62.822914Q292.96875 61.822914 293.29688 61.072914Q293.64062 60.30729 294.3125 59.93229Q295.0 59.55729 295.8125 59.55729Q296.8125 59.55729 297.45312 60.072914Q298.10938 60.572914 298.29688 61.52604L297.26562 61.68229Q297.125 61.05729 296.75 60.74479Q296.375 60.416664 295.84375 60.416664Q295.04688 60.416664 294.54688 60.99479Q294.04688 61.55729 294.04688 62.791664Q294.04688 64.05729 294.53125 64.61979Q295.01562 65.18229 295.78125 65.18229Q296.40625 65.18229 296.8125 64.80729Q297.23438 64.43229 297.35938 63.635414ZM299.29688 58.541664L299.29688 57.322914L300.35938 57.322914L300.35938 58.541664L299.29688 58.541664ZM299.29688 65.916664L299.29688 59.697914L300.35938 59.697914L300.35938 65.916664L299.29688 65.916664ZM301.875 64.05729L302.90625 63.90104Q303.0 64.52604 303.39062 64.854164Q303.79688 65.18229 304.53125 65.18229Q305.25 65.18229 305.59375 64.90104Q305.95312 64.604164 305.95312 64.197914Q305.95312 63.83854 305.64062 63.635414Q305.42188 63.49479 304.5625 63.27604Q303.40625 62.979164 302.95312 62.77604Q302.51562 62.55729 302.28125 62.18229Q302.04688 61.80729 302.04688 61.33854Q302.04688 60.93229 302.23438 60.572914Q302.42188 60.21354 302.75 59.979164Q303.0 59.80729 303.42188 59.68229Q303.84375 59.55729 304.34375 59.55729Q305.0625 59.55729 305.60938 59.77604Q306.17188 59.979164 306.4375 60.33854Q306.70312 60.697914 306.79688 61.291664L305.76562 61.43229Q305.70312 60.96354 305.35938 60.697914Q305.03125 60.416664 304.40625 60.416664Q303.6875 60.416664 303.375 60.666664Q303.0625 60.90104 303.0625 61.229164Q303.0625 61.43229 303.1875 61.58854Q303.32812 61.760414 303.59375 61.86979Q303.75 61.93229 304.53125 62.135414Q305.65625 62.447914 306.09375 62.635414Q306.53125 62.822914 306.78125 63.18229Q307.03125 63.541664 307.03125 64.08854Q307.03125 64.61979 306.71875 65.08854Q306.42188 65.541664 305.84375 65.80729Q305.26562 66.05729 304.53125 66.05729Q303.3125 66.05729 302.67188 65.55729Q302.04688 65.041664 301.875 64.05729ZM309.29688 58.541664L309.29688 57.322914L310.35938 57.322914L310.35938 58.541664L309.29688 58.541664ZM309.29688 65.916664L309.29688 59.697914L310.35938 59.697914L310.35938 65.916664L309.29688 65.916664ZM311.90625 62.80729Q311.90625 61.072914 312.85938 60.24479Q313.65625 59.55729 314.8125 59.55729Q316.09375 59.55729 316.90625 60.40104Q317.73438 61.229164 317.73438 62.71354Q317.73438 63.916664 317.375 64.604164Q317.01562 65.291664 316.3125 65.68229Q315.625 66.05729 314.8125 66.05729Q313.51562 66.05729 312.70312 65.229164Q311.90625 64.385414 311.90625 62.80729ZM312.98438 62.80729Q312.98438 63.99479 313.5 64.58854Q314.03125 65.18229 314.8125 65.18229Q315.60938 65.18229 316.125 64.58854Q316.64062 63.99479 316.64062 62.77604Q316.64062 61.61979 316.10938 61.02604Q315.59375 60.43229 314.8125 60.43229Q314.03125 60.43229 313.5 61.02604Q312.98438 61.604164 312.98438 62.80729ZM319.29688 65.916664L319.29688 59.697914L320.23438 59.697914L320.23438 60.572914Q320.92188 59.55729 322.21875 59.55729Q322.78125 59.55729 323.25 59.760414Q323.73438 59.96354 323.96875 60.291664Q324.20312 60.61979 324.29688 61.05729Q324.34375 61.354164 324.34375 62.08854L324.34375 65.916664L323.29688 65.916664L323.29688 62.135414Q323.29688 61.479164 323.17188 61.166664Q323.04688 60.854164 322.73438 60.666664Q322.42188 60.46354 322.0 60.46354Q321.32812 60.46354 320.82812 60.90104Q320.34375 61.322914 320.34375 62.510414L320.34375 65.916664L319.29688 65.916664Z" fill-rule="nonzero"/><path fill="#fbbc04" d="M341.5 56.916668C341.5 56.364384 341.94772 55.916668 342.5 55.916668L352.5 55.916668C353.05228 55.916668 353.5 56.364384 353.5 56.916668L353.5 66.916664C353.5 67.46895 353.05228 67.916664 352.5 67.916664L342.5 67.916664C341.94772 67.916664 341.5 67.46895 341.5 66.916664Z" fill-rule="nonzero"/><path fill="#1a1a1a" d="M362.4375 65.916664L362.4375 57.322914L366.25 57.322914Q367.40625 57.322914 368.0 57.55729Q368.59375 57.791664 368.95312 58.385414Q369.3125 58.96354 369.3125 59.666664Q369.3125 60.58854 368.71875 61.21354Q368.125 61.83854 366.89062 62.010414Q367.34375 62.229164 367.57812 62.43229Q368.07812 62.885414 368.51562 63.572914L370.01562 65.916664L368.57812 65.916664L367.45312 64.135414Q366.95312 63.354164 366.625 62.947914Q366.3125 62.541664 366.04688 62.385414Q365.79688 62.21354 365.53125 62.135414Q365.34375 62.104164 364.90625 62.104164L363.57812 62.104164L363.57812 65.916664L362.4375 65.916664ZM363.57812 61.11979L366.03125 61.11979Q366.79688 61.11979 367.23438 60.96354Q367.6875 60.791664 367.90625 60.447914Q368.14062 60.08854 368.14062 59.666664Q368.14062 59.05729 367.6875 58.666664Q367.25 58.27604 366.29688 58.27604L363.57812 58.27604L363.57812 61.11979ZM375.54688 63.916664L376.64062 64.041664Q376.39062 64.99479 375.6875 65.52604Q374.98438 66.05729 373.90625 66.05729Q372.54688 66.05729 371.73438 65.21354Q370.9375 64.36979 370.9375 62.854164Q370.9375 61.291664 371.75 60.43229Q372.5625 59.55729 373.84375 59.55729Q375.09375 59.55729 375.875 60.40104Q376.67188 61.24479 376.67188 62.791664Q376.67188 62.885414 376.67188 63.072914L372.03125 63.072914Q372.09375 64.104164 372.60938 64.65104Q373.125 65.18229 373.90625 65.18229Q374.48438 65.18229 374.89062 64.885414Q375.3125 64.572914 375.54688 63.916664ZM372.09375 62.21354L375.5625 62.21354Q375.5 61.416664 375.17188 61.02604Q374.65625 60.416664 373.85938 60.416664Q373.125 60.416664 372.625 60.90104Q372.14062 61.385414 372.09375 62.21354ZM382.35938 63.635414L383.39062 63.77604Q383.21875 64.83854 382.51562 65.447914Q381.8125 66.05729 380.79688 66.05729Q379.51562 66.05729 378.73438 65.229164Q377.96875 64.385414 377.96875 62.822914Q377.96875 61.822914 378.29688 61.072914Q378.64062 60.30729 379.3125 59.93229Q380.0 59.55729 380.8125 59.55729Q381.8125 59.55729 382.45312 60.072914Q383.10938 60.572914 383.29688 61.52604L382.26562 61.68229Q382.125 61.05729 381.75 60.74479Q381.375 60.416664 380.84375 60.416664Q380.04688 60.416664 379.54688 60.99479Q379.04688 61.55729 379.04688 62.791664Q379.04688 64.05729 379.53125 64.61979Q380.01562 65.18229 380.78125 65.18229Q381.40625 65.18229 381.8125 64.80729Q382.23438 64.43229 382.35938 63.635414ZM388.35938 65.15104Q387.76562 65.65104 387.21875 65.854164Q386.6875 66.05729 386.0625 66.05729Q385.03125 66.05729 384.48438 65.55729Q383.9375 65.05729 383.9375 64.27604Q383.9375 63.822914 384.14062 63.447914Q384.34375 63.05729 384.6875 62.83854Q385.03125 62.604164 385.45312 62.49479Q385.75 62.40104 386.39062 62.322914Q387.65625 62.18229 388.26562 61.96354Q388.26562 61.74479 388.26562 61.697914Q388.26562 61.041664 387.96875 60.77604Q387.5625 60.43229 386.76562 60.43229Q386.03125 60.43229 385.67188 60.697914Q385.3125 60.947914 385.14062 61.604164L384.10938 61.46354Q384.25 60.80729 384.57812 60.40104Q384.90625 59.99479 385.51562 59.77604Q386.125 59.55729 386.92188 59.55729Q387.71875 59.55729 388.21875 59.74479Q388.71875 59.93229 388.95312 60.21354Q389.1875 60.49479 389.28125 60.93229Q389.32812 61.197914 389.32812 61.90104L389.32812 63.30729Q389.32812 64.77604 389.39062 65.166664Q389.46875 65.55729 389.67188 65.916664L388.5625 65.916664Q388.40625 65.58854 388.35938 65.15104ZM388.26562 62.791664Q387.6875 63.02604 386.54688 63.197914Q385.89062 63.291664 385.625 63.416664Q385.35938 63.52604 385.20312 63.74479Q385.0625 63.96354 385.0625 64.24479Q385.0625 64.666664 385.375 64.947914Q385.70312 65.229164 386.3125 65.229164Q386.92188 65.229164 387.39062 64.96354Q387.875 64.697914 388.09375 64.229164Q388.26562 63.86979 388.26562 63.18229L388.26562 62.791664ZM391.26562 65.916664L391.26562 57.322914L392.32812 57.322914L392.32812 65.916664L391.26562 65.916664ZM394.26562 65.916664L394.26562 57.322914L395.32812 57.322914L395.32812 65.916664L394.26562 65.916664Z" fill-rule="nonzero"/><path fill="#757575" d="M26.8 31.940624L26.8 30.253124L32.8625 30.2375L32.8625 35.55Q31.45625 36.675 29.971874 37.2375Q28.4875 37.8 26.925 37.8Q24.815624 37.8 23.096874 36.89375Q21.378124 35.9875 20.4875 34.284374Q19.6125 32.565624 19.6125 30.45625Q19.6125 28.3625 20.4875 26.565624Q21.3625 24.753124 23.003124 23.878124Q24.64375 22.9875 26.784374 22.9875Q28.33125 22.9875 29.58125 23.4875Q30.846874 23.9875 31.55 24.89375Q32.26875 25.784374 32.64375 27.2375L30.940624 27.70625Q30.6125 26.6125 30.128124 25.9875Q29.659374 25.3625 28.76875 24.9875Q27.878124 24.6125 26.8 24.6125Q25.4875 24.6125 24.534374 25.003124Q23.596874 25.39375 23.01875 26.05Q22.440624 26.690624 22.1125 27.45625Q21.565624 28.784374 21.565624 30.346874Q21.565624 32.253124 22.221874 33.55Q22.89375 34.83125 24.14375 35.45625Q25.409374 36.08125 26.815624 36.08125Q28.05 36.08125 29.221874 35.6125Q30.39375 35.14375 31.003124 34.596874L31.003124 31.940624L26.8 31.940624ZM35.83125 37.55L35.83125 23.2375L37.58125 23.2375L37.58125 37.55L35.83125 37.55ZM39.221874 32.3625Q39.221874 29.4875 40.815624 28.096874Q42.159374 26.940624 44.08125 26.940624Q46.221874 26.940624 47.565624 28.346874Q48.925 29.753124 48.925 32.221874Q48.925 34.221874 48.33125 35.378124Q47.7375 36.51875 46.58125 37.159374Q45.440624 37.784374 44.08125 37.784374Q41.89375 37.784374 40.55 36.39375Q39.221874 34.9875 39.221874 32.3625ZM41.01875 32.3625Q41.01875 34.3625 41.878124 35.346874Q42.753124 36.33125 44.08125 36.33125Q45.39375 36.33125 46.253124 35.346874Q47.128124 34.346874 47.128124 32.3Q47.128124 30.378124 46.253124 29.39375Q45.378124 28.39375 44.08125 28.39375Q42.753124 28.39375 41.878124 29.39375Q41.01875 30.378124 41.01875 32.3625ZM52.4875 37.55L50.8625 37.55L50.8625 23.2375L52.6125 23.2375L52.6125 28.346874Q53.7375 26.940624 55.45625 26.940624Q56.409374 26.940624 57.26875 27.33125Q58.128124 27.721874 58.675 28.425Q59.221874 29.1125 59.534374 30.096874Q59.846874 31.08125 59.846874 32.20625Q59.846874 34.878124 58.534374 36.33125Q57.221874 37.784374 55.378124 37.784374Q53.534374 37.784374 52.4875 36.253124L52.4875 37.55ZM52.471874 32.284374Q52.471874 34.14375 52.971874 34.9875Q53.815624 36.33125 55.221874 36.33125Q56.378124 36.33125 57.20625 35.33125Q58.05 34.33125 58.05 32.346874Q58.05 30.315624 57.2375 29.3625Q56.440624 28.39375 55.3 28.39375Q54.14375 28.39375 53.3 29.39375Q52.471874 30.39375 52.471874 32.284374ZM68.64375 36.26875Q67.65938 37.096874 66.75313 37.440624Q65.84688 37.784374 64.81563 37.784374Q63.1125 37.784374 62.190624 36.95625Q61.26875 36.1125 61.26875 34.815624Q61.26875 34.05 61.6125 33.425Q61.971874 32.8 62.534374 32.425Q63.096874 32.034374 63.8 31.83125Q64.31563 31.70625 65.3625 31.565624Q67.4875 31.315624 68.4875 30.971874Q68.50313 30.6125 68.50313 30.503124Q68.50313 29.440624 68.00313 28.9875Q67.33125 28.39375 66.00313 28.39375Q64.75313 28.39375 64.15938 28.83125Q63.58125 29.26875 63.3 30.378124L61.58125 30.14375Q61.815624 29.034374 62.346874 28.3625Q62.878124 27.675 63.89375 27.315624Q64.90938 26.940624 66.25313 26.940624Q67.58125 26.940624 68.40938 27.253124Q69.2375 27.565624 69.62813 28.05Q70.01875 28.51875 70.175 29.2375Q70.26875 29.690624 70.26875 30.8625L70.26875 33.20625Q70.26875 35.659374 70.37813 36.315624Q70.4875 36.95625 70.83125 37.55L68.9875 37.55Q68.72188 37.003124 68.64375 36.26875ZM68.4875 32.346874Q67.53438 32.7375 65.6125 33.003124Q64.53438 33.159374 64.08125 33.3625Q63.64375 33.55 63.39375 33.925Q63.14375 34.3 63.14375 34.76875Q63.14375 35.471874 63.675 35.940624Q64.20625 36.409374 65.2375 36.409374Q66.25313 36.409374 67.03438 35.971874Q67.83125 35.51875 68.20625 34.753124Q68.4875 34.14375 68.4875 32.9875L68.4875 32.346874ZM72.83125 37.55L72.83125 23.2375L74.58125 23.2375L74.58125 37.55L72.83125 37.55ZM93.31563 32.534374L95.20625 33.003124Q94.6125 35.346874 93.06563 36.58125Q91.51875 37.8 89.26875 37.8Q86.95625 37.8 85.50313 36.8625Q84.06563 35.909374 83.3 34.128124Q82.55 32.33125 82.55 30.284374Q82.55 28.05 83.39375 26.39375Q84.25313 24.721874 85.83125 23.8625Q87.40938 22.9875 89.3 22.9875Q91.45625 22.9875 92.90938 24.08125Q94.37813 25.175 94.95625 27.159374L93.09688 27.596874Q92.59688 26.034374 91.64375 25.33125Q90.70625 24.6125 89.26875 24.6125Q87.6125 24.6125 86.50313 25.409374Q85.39375 26.190624 84.94063 27.534374Q84.50313 28.8625 84.50313 30.26875Q84.50313 32.096874 85.03438 33.471874Q85.56563 34.83125 86.69063 35.503124Q87.81563 36.175 89.1125 36.175Q90.70625 36.175 91.81563 35.253124Q92.925 34.33125 93.31563 32.534374ZM96.83125 37.55L96.83125 23.2375L98.58125 23.2375L98.58125 37.55L96.83125 37.55ZM107.64375 36.26875Q106.65938 37.096874 105.75313 37.440624Q104.84688 37.784374 103.81563 37.784374Q102.1125 37.784374 101.19063 36.95625Q100.26875 36.1125 100.26875 34.815624Q100.26875 34.05 100.6125 33.425Q100.97188 32.8 101.53438 32.425Q102.09688 32.034374 102.8 31.83125Q103.31563 31.70625 104.3625 31.565624Q106.4875 31.315624 107.4875 30.971874Q107.50313 30.6125 107.50313 30.503124Q107.50313 29.440624 107.00313 28.9875Q106.33125 28.39375 105.00313 28.39375Q103.75313 28.39375 103.15938 28.83125Q102.58125 29.26875 102.3 30.378124L100.58125 30.14375Q100.81563 29.034374 101.34688 28.3625Q101.87813 27.675 102.89375 27.315624Q103.90938 26.940624 105.25313 26.940624Q106.58125 26.940624 107.40938 27.253124Q108.2375 27.565624 108.62813 28.05Q109.01875 28.51875 109.175 29.2375Q109.26875 29.690624 109.26875 30.8625L109.26875 33.20625Q109.26875 35.659374 109.37813 36.315624Q109.4875 36.95625 109.83125 37.55L107.9875 37.55Q107.72188 37.003124 107.64375 36.26875ZM107.4875 32.346874Q106.53438 32.7375 104.6125 33.003124Q103.53438 33.159374 103.08125 33.3625Q102.64375 33.55 102.39375 33.925Q102.14375 34.3 102.14375 34.76875Q102.14375 35.471874 102.675 35.940624Q103.20625 36.409374 104.2375 36.409374Q105.25313 36.409374 106.03438 35.971874Q106.83125 35.51875 107.20625 34.753124Q107.4875 34.14375 107.4875 32.9875L107.4875 32.346874ZM111.15938 34.45625L112.90938 34.175Q113.05 35.221874 113.72188 35.784374Q114.39375 36.33125 115.59688 36.33125Q116.8 36.33125 117.37813 35.846874Q117.97188 35.346874 117.97188 34.690624Q117.97188 34.096874 117.45625 33.753124Q117.09688 33.51875 115.65938 33.159374Q113.72188 32.659374 112.97188 32.315624Q112.2375 31.95625 111.84688 31.33125Q111.45625 30.690624 111.45625 29.925Q111.45625 29.2375 111.76875 28.64375Q112.09688 28.05 112.64375 27.659374Q113.05 27.3625 113.75313 27.159374Q114.47188 26.940624 115.28438 26.940624Q116.50313 26.940624 117.425 27.3Q118.34688 27.64375 118.78438 28.253124Q119.22188 28.846874 119.39375 29.846874L117.675 30.08125Q117.55 29.284374 116.9875 28.846874Q116.425 28.39375 115.40938 28.39375Q114.19063 28.39375 113.675 28.8Q113.15938 29.190624 113.15938 29.721874Q113.15938 30.065624 113.37813 30.346874Q113.58125 30.628124 114.05 30.815624Q114.31563 30.909374 115.59688 31.253124Q117.47188 31.753124 118.20625 32.08125Q118.94063 32.39375 119.3625 33.003124Q119.78438 33.596874 119.78438 34.503124Q119.78438 35.378124 119.26875 36.159374Q118.75313 36.940624 117.78438 37.3625Q116.81563 37.784374 115.59688 37.784374Q113.58125 37.784374 112.51875 36.940624Q111.45625 36.096874 111.15938 34.45625ZM121.15938 34.45625L122.90938 34.175Q123.05 35.221874 123.72188 35.784374Q124.39375 36.33125 125.59688 36.33125Q126.8 36.33125 127.37813 35.846874Q127.97188 35.346874 127.97188 34.690624Q127.97188 34.096874 127.45625 33.753124Q127.09688 33.51875 125.65938 33.159374Q123.72188 32.659374 122.97188 32.315624Q122.2375 31.95625 121.84688 31.33125Q121.45625 30.690624 121.45625 29.925Q121.45625 29.2375 121.76875 28.64375Q122.09688 28.05 122.64375 27.659374Q123.05 27.3625 123.75313 27.159374Q124.47188 26.940624 125.28438 26.940624Q126.50313 26.940624 127.425 27.3Q128.34688 27.64375 128.78438 28.253124Q129.22188 28.846874 129.39375 29.846874L127.675 30.08125Q127.55 29.284374 126.9875 28.846874Q126.425 28.39375 125.40938 28.39375Q124.19063 28.39375 123.675 28.8Q123.15938 29.190624 123.15938 29.721874Q123.15938 30.065624 123.37813 30.346874Q123.58125 30.628124 124.05 30.815624Q124.31563 30.909374 125.59688 31.253124Q127.47188 31.753124 128.20625 32.08125Q128.94063 32.39375 129.3625 33.003124Q129.78438 33.596874 129.78438 34.503124Q129.78438 35.378124 129.26875 36.159374Q128.75313 36.940624 127.78438 37.3625Q126.81563 37.784374 125.59688 37.784374Q123.58125 37.784374 122.51875 36.940624Q121.45625 36.096874 121.15938 34.45625ZM131.87813 25.253124L131.87813 23.2375L133.64375 23.2375L133.64375 25.253124L131.87813 25.253124ZM131.87813 37.55L131.87813 27.175L133.64375 27.175L133.64375 37.55L131.87813 37.55ZM136.28438 37.55L136.28438 28.55L134.7375 28.55L134.7375 27.175L136.28438 27.175L136.28438 26.08125Q136.28438 25.034374 136.47188 24.51875Q136.72188 23.83125 137.3625 23.409374Q138.00313 22.9875 139.15938 22.9875Q139.90938 22.9875 140.8 23.159374L140.53438 24.690624Q139.9875 24.596874 139.50313 24.596874Q138.70625 24.596874 138.3625 24.940624Q138.03438 25.284374 138.03438 26.221874L138.03438 27.175L140.06563 27.175L140.06563 28.55L138.03438 28.55L138.03438 37.55L136.28438 37.55ZM141.87813 25.253124L141.87813 23.2375L143.64375 23.2375L143.64375 25.253124L141.87813 25.253124ZM141.87813 37.55L141.87813 27.175L143.64375 27.175L143.64375 37.55L141.87813 37.55ZM152.64375 33.753124L154.3625 33.971874Q154.08125 35.76875 152.90938 36.784374Q151.75313 37.784374 150.05 37.784374Q147.925 37.784374 146.62813 36.39375Q145.33125 35.003124 145.33125 32.409374Q145.33125 30.721874 145.87813 29.471874Q146.44063 28.20625 147.58125 27.58125Q148.72188 26.940624 150.06563 26.940624Q151.75313 26.940624 152.81563 27.8Q153.89375 28.659374 154.20625 30.221874L152.4875 30.4875Q152.25313 29.440624 151.62813 28.925Q151.00313 28.39375 150.12813 28.39375Q148.8 28.39375 147.97188 29.346874Q147.14375 30.3 147.14375 32.346874Q147.14375 34.440624 147.94063 35.39375Q148.7375 36.33125 150.03438 36.33125Q151.06563 36.33125 151.75313 35.70625Q152.45625 35.065624 152.64375 33.753124ZM162.64375 36.26875Q161.65938 37.096874 160.75313 37.440624Q159.84688 37.784374 158.81563 37.784374Q157.1125 37.784374 156.19063 36.95625Q155.26875 36.1125 155.26875 34.815624Q155.26875 34.05 155.6125 33.425Q155.97188 32.8 156.53438 32.425Q157.09688 32.034374 157.8 31.83125Q158.31563 31.70625 159.3625 31.565624Q161.4875 31.315624 162.4875 30.971874Q162.50313 30.6125 162.50313 30.503124Q162.50313 29.440624 162.00313 28.9875Q161.33125 28.39375 160.00313 28.39375Q158.75313 28.39375 158.15938 28.83125Q157.58125 29.26875 157.3 30.378124L155.58125 30.14375Q155.81563 29.034374 156.34688 28.3625Q156.87813 27.675 157.89375 27.315624Q158.90938 26.940624 160.25313 26.940624Q161.58125 26.940624 162.40938 27.253124Q163.2375 27.565624 163.62813 28.05Q164.01875 28.51875 164.175 29.2375Q164.26875 29.690624 164.26875 30.8625L164.26875 33.20625Q164.26875 35.659374 164.37813 36.315624Q164.4875 36.95625 164.83125 37.55L162.9875 37.55Q162.72188 37.003124 162.64375 36.26875ZM162.4875 32.346874Q161.53438 32.7375 159.6125 33.003124Q158.53438 33.159374 158.08125 33.3625Q157.64375 33.55 157.39375 33.925Q157.14375 34.3 157.14375 34.76875Q157.14375 35.471874 157.675 35.940624Q158.20625 36.409374 159.2375 36.409374Q160.25313 36.409374 161.03438 35.971874Q161.83125 35.51875 162.20625 34.753124Q162.4875 34.14375 162.4875 32.9875L162.4875 32.346874ZM170.70625 35.971874L170.95625 37.534374Q170.22188 37.690624 169.62813 37.690624Q168.675 37.690624 168.14375 37.39375Q167.62813 37.08125 167.40938 36.596874Q167.19063 36.096874 167.19063 34.51875L167.19063 28.55L165.90938 28.55L165.90938 27.175L167.19063 27.175L167.19063 24.6125L168.94063 23.55L168.94063 27.175L170.70625 27.175L170.70625 28.55L168.94063 28.55L168.94063 34.6125Q168.94063 35.3625 169.03438 35.58125Q169.12813 35.784374 169.33125 35.925Q169.55 36.05 169.94063 36.05Q170.22188 36.05 170.70625 35.971874ZM172.87813 25.253124L172.87813 23.2375L174.64375 23.2375L174.64375 25.253124L172.87813 25.253124ZM172.87813 37.55L172.87813 27.175L174.64375 27.175L174.64375 37.55L172.87813 37.55ZM176.22188 32.3625Q176.22188 29.4875 177.81563 28.096874Q179.15938 26.940624 181.08125 26.940624Q183.22188 26.940624 184.56563 28.346874Q185.925 29.753124 185.925 32.221874Q185.925 34.221874 185.33125 35.378124Q184.7375 36.51875 183.58125 37.159374Q182.44063 37.784374 181.08125 37.784374Q178.89375 37.784374 177.55 36.39375Q176.22188 34.9875 176.22188 32.3625ZM178.01875 32.3625Q178.01875 34.3625 178.87813 35.346874Q179.75313 36.33125 181.08125 36.33125Q182.39375 36.33125 183.25313 35.346874Q184.12813 34.346874 184.12813 32.3Q184.12813 30.378124 183.25313 29.39375Q182.37813 28.39375 181.08125 28.39375Q179.75313 28.39375 178.87813 29.39375Q178.01875 30.378124 178.01875 32.3625ZM187.8625 37.55L187.8625 27.175L189.45625 27.175L189.45625 28.659374Q190.59688 26.940624 192.75313 26.940624Q193.69063 26.940624 194.47188 27.284374Q195.26875 27.6125 195.65938 28.159374Q196.05 28.70625 196.20625 29.45625Q196.3 29.95625 196.3 31.175L196.3 37.55L194.53438 37.55L194.53438 31.2375Q194.53438 30.159374 194.33125 29.628124Q194.12813 29.096874 193.59688 28.784374Q193.08125 28.471874 192.37813 28.471874Q191.25313 28.471874 190.44063 29.190624Q189.62813 29.89375 189.62813 31.878124L189.62813 37.55L187.8625 37.55Z" fill-rule="nonzero"/></svg>