<svg version="1.1" viewBox="0.0 0.0 600.0 371.0" fill="none" stroke="none" stroke-linecap="square" stroke-miterlimit="10" width="600" height="371" xmlns:xlink="http://www.w3.org/1999/xlink" xmlns="http://www.w3.org/2000/svg"><path fill="#ffffff" d="M0 0L600.0 0L600.0 371.0L0 371.0L0 0Z" fill-rule="nonzero"/><path stroke="#333333" stroke-width="1.0" stroke-linecap="butt" d="M48.5 300.5L581.5 300.5" fill-rule="nonzero"/><path stroke="#cccccc" stroke-width="1.0" stroke-linecap="butt" d="M48.5 247.5L581.5 247.5" fill-rule="nonzero"/><path stroke="#cccccc" stroke-width="1.0" stroke-linecap="butt" d="M48.5 194.5L581.5 194.5" fill-rule="nonzero"/><path stroke="#cccccc" stroke-width="1.0" stroke-linecap="butt" d="M48.5 141.5L581.5 141.5" fill-rule="nonzero"/><path stroke="#cccccc" stroke-width="1.0" stroke-linecap="butt" d="M48.5 88.5L581.5 88.5" fill-rule="nonzero"/><clipPath id="id_0"><path d="M48.55 88.28333L581.45 88.28333L581.45 300.45L48.55 300.45L48.55 88.28333Z" clip-rule="nonzero"/></clipPath><path stroke="#000000" stroke-width="2.0" stroke-linecap="butt" stroke-opacity="0.0" clip-path="url(#id_0)" d="M138.0 300.0L106.0 300.0L106.0 174.0C106.0 172.89543 106.89543 172.0 108.0 172.0L136.0 172.0C137.10457 172.0 138.0 172.89543 138.0 174.0Z" fill-rule="nonzero"/><path fill="#4285f4" clip-path="url(#id_0)" d="M138.0 300.0L106.0 300.0L106.0 174.0C106.0 172.89543 106.89543 172.0 108.0 172.0L136.0 172.0C137.10457 172.0 138.0 172.89543 138.0 174.0Z" fill-rule="nonzero"/><path stroke="#000000" stroke-width="2.0" stroke-linecap="butt" stroke-opacity="0.0" clip-path="url(#id_0)" d="M297.0 300.0L265.0 300.0L265.0 155.0C265.0 153.89543 265.89542 153.0 267.0 153.0L295.0 153.0C296.10458 153.0 297.0 153.89543 297.0 155.0Z" fill-rule="nonzero"/><path fill="#4285f4" clip-path="url(#id_0)" d="M297.0 300.0L265.0 300.0L265.0 155.0C265.0 153.89543 265.89542 153.0 267.0 153.0L295.0 153.0C296.10458 153.0 297.0 153.89543 297.0 155.0Z" fill-rule="nonzero"/><path stroke="#000000" stroke-width="2.0" stroke-linecap="butt" stroke-opacity="0.0" clip-path="url(#id_0)" d="M456.0 300.0L424.0 300.0L424.0 156.0C424.0 154.89543 424.89542 154.0 426.0 154.0L454.0 154.0C455.10458 154.0 456.0 154.89543 456.0 156.0Z" fill-rule="nonzero"/><path fill="#4285f4" clip-path="url(#id_0)" d="M456.0 300.0L424.0 300.0L424.0 156.0C424.0 154.89543 424.89542 154.0 426.0 154.0L454.0 154.0C455.10458 154.0 456.0 154.89543 456.0 156.0Z" fill-rule="nonzero"/><path stroke="#000000" stroke-width="2.0" stroke-linecap="butt" stroke-opacity="0.0" clip-path="url(#id_0)" d="M172.0 300.0L140.0 300.0L140.0 198.0C140.0 196.89543 140.89543 196.0 142.0 196.0L170.0 196.0C171.10457 196.0 172.0 196.89543 172.0 198.0Z" fill-rule="nonzero"/><path fill="#ea4335" clip-path="url(#id_0)" d="M172.0 300.0L140.0 300.0L140.0 198.0C140.0 196.89543 140.89543 196.0 142.0 196.0L170.0 196.0C171.10457 196.0 172.0 196.89543 172.0 198.0Z" fill-rule="nonzero"/><path stroke="#000000" stroke-width="2.0" stroke-linecap="butt" stroke-opacity="0.0" clip-path="url(#id_0)" d="M331.0 300.0L299.0 300.0L299.0 160.0C299.0 158.89543 299.89542 158.0 301.0 158.0L329.0 158.0C330.10458 158.0 331.0 158.89543 331.0 160.0Z" fill-rule="nonzero"/><path fill="#ea4335" clip-path="url(#id_0)" d="M331.0 300.0L299.0 300.0L299.0 160.0C299.0 158.89543 299.89542 158.0 301.0 158.0L329.0 158.0C330.10458 158.0 331.0 158.89543 331.0 160.0Z" fill-rule="nonzero"/><path stroke="#000000" stroke-width="2.0" stroke-linecap="butt" stroke-opacity="0.0" clip-path="url(#id_0)" d="M490.0 300.0L458.0 300.0L458.0 123.0C458.0 121.89543 458.89542 121.0 460.0 121.0L488.0 121.0C489.10458 121.0 490.0 121.89543 490.0 123.0Z" fill-rule="nonzero"/><path fill="#ea4335" clip-path="url(#id_0)" d="M490.0 300.0L458.0 300.0L458.0 123.0C458.0 121.89543 458.89542 121.0 460.0 121.0L488.0 121.0C489.10458 121.0 490.0 121.89543 490.0 123.0Z" fill-rule="nonzero"/><path stroke="#000000" stroke-width="2.0" stroke-linecap="butt" stroke-opacity="0.0" clip-path="url(#id_0)" d="M206.0 300.0L174.0 300.0L174.0 135.0C174.0 133.89543 174.89543 133.0 176.0 133.0L204.0 133.0C205.10457 133.0 206.0 133.89543 206.0 135.0Z" fill-rule="nonzero"/><path fill="#fbbc04" clip-path="url(#id_0)" d="M206.0 300.0L174.0 300.0L174.0 135.0C174.0 133.89543 174.89543 133.0 176.0 133.0L204.0 133.0C205.10457 133.0 206.0 133.89543 206.0 135.0Z" fill-rule="nonzero"/><path stroke="#000000" stroke-width="2.0" stroke-linecap="butt" stroke-opacity="0.0" clip-path="url(#id_0)" d="M365.0 300.0L333.0 300.0L333.0 149.0C333.0 147.89543 333.89542 147.0 335.0 147.0L363.0 147.0C364.10458 147.0 365.0 147.89543 365.0 149.0Z" fill-rule="nonzero"/><path fill="#fbbc04" clip-path="url(#id_0)" d="M365.0 300.0L333.0 300.0L333.0 149.0C333.0 147.89543 333.89542 147.0 335.0 147.0L363.0 147.0C364.10458 147.0 365.0 147.89543 365.0 149.0Z" fill-rule="nonzero"/><path stroke="#000000" stroke-width="2.0" stroke-linecap="butt" stroke-opacity="0.0" clip-path="url(#id_0)" d="M524.0 300.0L492.0 300.0L492.0 178.0C492.0 176.89543 492.89542 176.0 494.0 176.0L522.0 176.0C523.10455 176.0 524.0 176.89543 524.0 178.0Z" fill-rule="nonzero"/><path fill="#fbbc04" clip-path="url(#id_0)" d="M524.0 300.0L492.0 300.0L492.0 178.0C492.0 176.89543 492.89542 176.0 494.0 176.0L522.0 176.0C523.10455 176.0 524.0 176.89543 524.0 178.0Z" fill-rule="nonzero"/><path fill="#000000" d="M285.10938 349.45L285.10938 341.8719L282.28125 341.8719L282.28125 340.85626L289.09375 340.85626L289.09375 341.8719L286.25 341.8719L286.25 349.45L285.10938 349.45ZM289.96875 349.45L289.96875 340.85626L291.09375 340.85626L291.09375 344.3875L295.5625 344.3875L295.5625 340.85626L296.70312 340.85626L296.70312 349.45L295.5625 349.45L295.5625 345.40314L291.09375 345.40314L291.09375 349.45L289.96875 349.45ZM297.8125 351.84064L297.8125 351.075L304.8125 351.075L304.8125 351.84064L297.8125 351.84064ZM305.54688 346.6844L306.60938 346.59064Q306.6875 347.2469 306.96875 347.65314Q307.25 348.0594 307.82812 348.325Q308.42188 348.575 309.15625 348.575Q309.79688 348.575 310.29688 348.3875Q310.79688 348.1844 311.03125 347.85626Q311.28125 347.5125 311.28125 347.1219Q311.28125 346.71564 311.04688 346.41876Q310.8125 346.10626 310.28125 345.90314Q309.92188 345.7625 308.73438 345.48126Q307.5625 345.2 307.09375 344.95Q306.46875 344.6219 306.17188 344.15314Q305.875 343.66876 305.875 343.075Q305.875 342.4344 306.23438 341.8719Q306.60938 341.29376 307.3125 341.0125Q308.03125 340.71564 308.89062 340.71564Q309.84375 340.71564 310.57812 341.02814Q311.3125 341.325 311.70312 341.9344Q312.09375 342.52814 312.125 343.27814L311.03125 343.35626Q310.9375 342.54376 310.42188 342.1375Q309.92188 341.71564 308.9375 341.71564Q307.90625 341.71564 307.4375 342.09064Q306.96875 342.46564 306.96875 342.9969Q306.96875 343.46564 307.29688 343.7625Q307.625 344.0594 309.0 344.3719Q310.39062 344.6844 310.90625 344.91876Q311.65625 345.27814 312.01562 345.8094Q312.375 346.325 312.375 347.02814Q312.375 347.71564 311.98438 348.325Q311.59375 348.91876 310.85938 349.2625Q310.125 349.59064 309.20312 349.59064Q308.03125 349.59064 307.23438 349.2625Q306.45312 348.91876 306.0 348.23126Q305.5625 347.54376 305.54688 346.6844ZM320.0625 346.4344L321.1875 346.73126Q320.82812 348.1219 319.90625 348.85626Q318.98438 349.59064 317.64062 349.59064Q316.25 349.59064 315.375 349.02814Q314.5 348.46564 314.04688 347.40314Q313.59375 346.325 313.59375 345.09064Q313.59375 343.7469 314.10938 342.7469Q314.625 341.7469 315.5625 341.23126Q316.51562 340.71564 317.65625 340.71564Q318.9375 340.71564 319.8125 341.3719Q320.70312 342.02814 321.04688 343.21564L319.92188 343.48126Q319.625 342.54376 319.04688 342.1219Q318.48438 341.6844 317.625 341.6844Q316.64062 341.6844 315.96875 342.16876Q315.3125 342.6375 315.03125 343.4344Q314.76562 344.23126 314.76562 345.09064Q314.76562 346.1844 315.07812 346.9969Q315.40625 347.8094 316.07812 348.21564Q316.75 348.6219 317.54688 348.6219Q318.5 348.6219 319.15625 348.075Q319.82812 347.52814 320.0625 346.4344ZM322.57812 345.2625Q322.57812 343.1219 323.71875 341.91876Q324.875 340.7 326.6875 340.7Q327.89062 340.7 328.84375 341.27814Q329.79688 341.84064 330.29688 342.85626Q330.79688 343.8719 330.79688 345.16876Q330.79688 346.46564 330.26562 347.4969Q329.73438 348.52814 328.76562 349.0594Q327.8125 349.59064 326.6875 349.59064Q325.46875 349.59064 324.51562 349.0125Q323.5625 348.41876 323.0625 347.41876Q322.57812 346.40314 322.57812 345.2625ZM323.75 345.27814Q323.75 346.84064 324.57812 347.73126Q325.42188 348.6219 326.6875 348.6219Q327.96875 348.6219 328.79688 347.73126Q329.625 346.825 329.625 345.15314Q329.625 344.10626 329.26562 343.325Q328.92188 342.54376 328.23438 342.1219Q327.54688 341.6844 326.70312 341.6844Q325.5 341.6844 324.625 342.5125Q323.75 343.34064 323.75 345.27814ZM331.9375 349.45L331.9375 340.85626L335.75 340.85626Q336.90625 340.85626 337.5 341.09064Q338.09375 341.325 338.45312 341.91876Q338.8125 342.4969 338.8125 343.2Q338.8125 344.1219 338.21875 344.7469Q337.625 345.3719 336.39062 345.54376Q336.84375 345.7625 337.07812 345.96564Q337.57812 346.41876 338.01562 347.10626L339.51562 349.45L338.07812 349.45L336.95312 347.66876Q336.45312 346.8875 336.125 346.48126Q335.8125 346.075 335.54688 345.91876Q335.29688 345.7469 335.03125 345.66876Q334.84375 345.6375 334.40625 345.6375L333.07812 345.6375L333.07812 349.45L331.9375 349.45ZM333.07812 344.65314L335.53125 344.65314Q336.29688 344.65314 336.73438 344.4969Q337.1875 344.325 337.40625 343.98126Q337.64062 343.6219 337.64062 343.2Q337.64062 342.59064 337.1875 342.2Q336.75 341.8094 335.79688 341.8094L333.07812 341.8094L333.07812 344.65314ZM340.95312 349.45L340.95312 340.85626L347.15625 340.85626L347.15625 341.8719L342.09375 341.8719L342.09375 344.4969L346.84375 344.4969L346.84375 345.5125L342.09375 345.5125L342.09375 348.4344L347.35938 348.4344L347.35938 349.45L340.95312 349.45Z" fill-rule="nonzero"/><path fill="#000000" d="M36.05 300.21564Q36.05 298.6844 36.3625 297.7625Q36.675 296.825 37.284374 296.325Q37.909374 295.825 38.846874 295.825Q39.534374 295.825 40.05 296.10626Q40.58125 296.3875 40.925 296.91876Q41.26875 297.4344 41.45625 298.1844Q41.64375 298.9344 41.64375 300.21564Q41.64375 301.73126 41.33125 302.65314Q41.034374 303.575 40.409374 304.09064Q39.8 304.59064 38.846874 304.59064Q37.6125 304.59064 36.89375 303.7Q36.05 302.6375 36.05 300.21564ZM37.128124 300.21564Q37.128124 302.325 37.628124 303.02814Q38.128124 303.73126 38.846874 303.73126Q39.58125 303.73126 40.065624 303.02814Q40.565624 302.325 40.565624 300.21564Q40.565624 298.09064 40.065624 297.40314Q39.58125 296.7 38.83125 296.7Q38.1125 296.7 37.675 297.3094Q37.128124 298.09064 37.128124 300.21564Z" fill-rule="nonzero"/><path fill="#000000" d="M19.05 247.17397Q19.05 245.64272 19.3625 244.72084Q19.675 243.78334 20.284374 243.28334Q20.909374 242.78334 21.846874 242.78334Q22.534374 242.78334 23.05 243.06459Q23.58125 243.34584 23.925 243.87709Q24.26875 244.39272 24.45625 245.14272Q24.64375 245.89272 24.64375 247.17397Q24.64375 248.68959 24.33125 249.61147Q24.034374 250.53334 23.409374 251.04897Q22.8 251.54897 21.846874 251.54897Q20.6125 251.54897 19.89375 250.65834Q19.05 249.59584 19.05 247.17397ZM20.128124 247.17397Q20.128124 249.28334 20.628124 249.98647Q21.128124 250.68959 21.846874 250.68959Q22.58125 250.68959 23.065624 249.98647Q23.565624 249.28334 23.565624 247.17397Q23.565624 245.04897 23.065624 244.36147Q22.58125 243.65834 21.83125 243.65834Q21.1125 243.65834 20.675 244.26772Q20.128124 245.04897 20.128124 247.17397ZM26.6125 251.40834L26.6125 250.20522L27.815624 250.20522L27.815624 251.40834Q27.815624 252.06459 27.58125 252.47084Q27.346874 252.89272 26.846874 253.11147L26.55 252.65834Q26.878124 252.51772 27.034374 252.22084Q27.190624 251.93959 27.221874 251.40834L26.6125 251.40834ZM34.596874 250.39272L34.596874 251.40834L28.909374 251.40834Q28.909374 251.03334 29.034374 250.67397Q29.253124 250.09584 29.721874 249.53334Q30.20625 248.97084 31.1125 248.23647Q32.51875 247.08022 33.003124 246.40834Q33.503124 245.73647 33.503124 245.14272Q33.503124 244.51772 33.05 244.09584Q32.596874 243.65834 31.878124 243.65834Q31.1125 243.65834 30.659374 244.11147Q30.20625 244.56459 30.190624 245.37709L29.1125 245.26772Q29.221874 244.04897 29.940624 243.42397Q30.675 242.78334 31.909374 242.78334Q33.14375 242.78334 33.8625 243.47084Q34.58125 244.15834 34.58125 245.17397Q34.58125 245.68959 34.3625 246.18959Q34.159374 246.67397 33.659374 247.23647Q33.175 247.78334 32.05 248.73647Q31.096874 249.53334 30.815624 249.83022Q30.55 250.11147 30.378124 250.39272L34.596874 250.39272ZM36.05 249.15834L37.159374 249.06459Q37.284374 249.87709 37.721874 250.28334Q38.175 250.68959 38.815624 250.68959Q39.565624 250.68959 40.096874 250.11147Q40.628124 249.53334 40.628124 248.59584Q40.628124 247.68959 40.1125 247.17397Q39.6125 246.64272 38.784374 246.64272Q38.284374 246.64272 37.8625 246.87709Q37.45625 247.11147 37.221874 247.47084L36.2375 247.34584L37.065624 242.93959L41.346874 242.93959L41.346874 243.93959L37.909374 243.93959L37.45625 246.25209Q38.221874 245.70522 39.065624 245.70522Q40.190624 245.70522 40.95625 246.48647Q41.7375 247.26772 41.7375 248.50209Q41.7375 249.65834 41.065624 250.51772Q40.2375 251.54897 38.815624 251.54897Q37.64375 251.54897 36.89375 250.89272Q36.159374 250.23647 36.05 249.15834Z" fill-rule="nonzero"/><path fill="#000000" d="M26.05 194.1323Q26.05 192.60104 26.3625 191.67917Q26.675 190.74167 27.284374 190.24167Q27.909374 189.74167 28.846874 189.74167Q29.534374 189.74167 30.05 190.02292Q30.58125 190.30417 30.925 190.83542Q31.26875 191.35104 31.45625 192.10104Q31.64375 192.85104 31.64375 194.1323Q31.64375 195.64792 31.33125 196.5698Q31.034374 197.49167 30.409374 198.0073Q29.8 198.5073 28.846874 198.5073Q27.6125 198.5073 26.89375 197.61667Q26.05 196.55417 26.05 194.1323ZM27.128124 194.1323Q27.128124 196.24167 27.628124 196.9448Q28.128124 197.64792 28.846874 197.64792Q29.58125 197.64792 30.065624 196.9448Q30.565624 196.24167 30.565624 194.1323Q30.565624 192.0073 30.065624 191.3198Q29.58125 190.61667 28.83125 190.61667Q28.1125 190.61667 27.675 191.22604Q27.128124 192.0073 27.128124 194.1323ZM33.6125 198.36667L33.6125 197.16354L34.815624 197.16354L34.815624 198.36667Q34.815624 199.02292 34.58125 199.42917Q34.346874 199.85104 33.846874 200.0698L33.55 199.61667Q33.878124 199.47604 34.034374 199.17917Q34.190624 198.89792 34.221874 198.36667L33.6125 198.36667ZM36.05 196.11667L37.159374 196.02292Q37.284374 196.83542 37.721874 197.24167Q38.175 197.64792 38.815624 197.64792Q39.565624 197.64792 40.096874 197.0698Q40.628124 196.49167 40.628124 195.55417Q40.628124 194.64792 40.1125 194.1323Q39.6125 193.60104 38.784374 193.60104Q38.284374 193.60104 37.8625 193.83542Q37.45625 194.0698 37.221874 194.42917L36.2375 194.30417L37.065624 189.89792L41.346874 189.89792L41.346874 190.89792L37.909374 190.89792L37.45625 193.21042Q38.221874 192.66354 39.065624 192.66354Q40.190624 192.66354 40.95625 193.4448Q41.7375 194.22604 41.7375 195.46042Q41.7375 196.61667 41.065624 197.47604Q40.2375 198.5073 38.815624 198.5073Q37.64375 198.5073 36.89375 197.85104Q36.159374 197.1948 36.05 196.11667Z" fill-rule="nonzero"/><path fill="#000000" d="M19.05 141.09062Q19.05 139.55937 19.3625 138.6375Q19.675 137.7 20.284374 137.2Q20.909374 136.7 21.846874 136.7Q22.534374 136.7 23.05 136.98125Q23.58125 137.2625 23.925 137.79375Q24.26875 138.30937 24.45625 139.05937Q24.64375 139.80937 24.64375 141.09062Q24.64375 142.60625 24.33125 143.52812Q24.034374 144.45 23.409374 144.96562Q22.8 145.46562 21.846874 145.46562Q20.6125 145.46562 19.89375 144.575Q19.05 143.5125 19.05 141.09062ZM20.128124 141.09062Q20.128124 143.2 20.628124 143.90312Q21.128124 144.60625 21.846874 144.60625Q22.58125 144.60625 23.065624 143.90312Q23.565624 143.2 23.565624 141.09062Q23.565624 138.96562 23.065624 138.27812Q22.58125 137.575 21.83125 137.575Q21.1125 137.575 20.675 138.18437Q20.128124 138.96562 20.128124 141.09062ZM26.6125 145.325L26.6125 144.12187L27.815624 144.12187L27.815624 145.325Q27.815624 145.98125 27.58125 146.3875Q27.346874 146.80937 26.846874 147.02812L26.55 146.575Q26.878124 146.43437 27.034374 146.1375Q27.190624 145.85625 27.221874 145.325L26.6125 145.325ZM29.1125 137.85625L29.1125 136.84062L34.675 136.84062L34.675 137.66875Q33.8625 138.54375 33.05 139.99687Q32.253124 141.43437 31.815624 142.96562Q31.4875 144.04375 31.409374 145.325L30.315624 145.325Q30.33125 144.30937 30.70625 142.87187Q31.096874 141.43437 31.8 140.10625Q32.51875 138.77812 33.33125 137.85625L29.1125 137.85625ZM36.05 143.075L37.159374 142.98125Q37.284374 143.79375 37.721874 144.2Q38.175 144.60625 38.815624 144.60625Q39.565624 144.60625 40.096874 144.02812Q40.628124 143.45 40.628124 142.5125Q40.628124 141.60625 40.1125 141.09062Q39.6125 140.55937 38.784374 140.55937Q38.284374 140.55937 37.8625 140.79375Q37.45625 141.02812 37.221874 141.3875L36.2375 141.2625L37.065624 136.85625L41.346874 136.85625L41.346874 137.85625L37.909374 137.85625L37.45625 140.16875Q38.221874 139.62187 39.065624 139.62187Q40.190624 139.62187 40.95625 140.40312Q41.7375 141.18437 41.7375 142.41875Q41.7375 143.575 41.065624 144.43437Q40.2375 145.46562 38.815624 145.46562Q37.64375 145.46562 36.89375 144.80937Q36.159374 144.15312 36.05 143.075Z" fill-rule="nonzero"/><path fill="#000000" d="M40.01875 92.28333L38.971874 92.28333L38.971874 85.56458Q38.58125 85.92396 37.95625 86.29896Q37.346874 86.65833 36.8625 86.83021L36.8625 85.81458Q37.7375 85.39271 38.39375 84.81458Q39.065624 84.22083 39.346874 83.65833L40.01875 83.65833L40.01875 92.28333Z" fill-rule="nonzero"/><path fill="#000000" d="M147.92537 313.21564Q147.92537 311.6844 148.23787 310.7625Q148.55037 309.825 149.15974 309.325Q149.78474 308.825 150.72224 308.825Q151.40974 308.825 151.92537 309.10626Q152.45662 309.3875 152.80037 309.91876Q153.14412 310.4344 153.33162 311.1844Q153.51912 311.9344 153.51912 313.21564Q153.51912 314.73126 153.20662 315.65314Q152.90974 316.575 152.28474 317.09064Q151.67537 317.59064 150.72224 317.59064Q149.48787 317.59064 148.76912 316.7Q147.92537 315.6375 147.92537 313.21564ZM149.0035 313.21564Q149.0035 315.325 149.5035 316.02814Q150.0035 316.73126 150.72224 316.73126Q151.45662 316.73126 151.941 316.02814Q152.441 315.325 152.441 313.21564Q152.441 311.09064 151.941 310.40314Q151.45662 309.7 150.70662 309.7Q149.98787 309.7 149.55037 310.3094Q149.0035 311.09064 149.0035 313.21564ZM155.51912 317.45L155.51912 316.2469L156.72224 316.2469L156.72224 317.45L155.51912 317.45ZM157.92537 315.1844L158.98787 315.04376Q159.15974 315.9344 159.59724 316.34064Q160.03474 316.73126 160.65974 316.73126Q161.40974 316.73126 161.92537 316.21564Q162.441 315.7 162.441 314.9344Q162.441 314.21564 161.95662 313.7469Q161.48787 313.2625 160.7535 313.2625Q160.45662 313.2625 160.0035 313.3875L160.1285 312.45Q160.23787 312.46564 160.30037 312.46564Q160.97224 312.46564 161.5035 312.1219Q162.05037 311.7625 162.05037 311.02814Q162.05037 310.45 161.65974 310.075Q161.26912 309.6844 160.64412 309.6844Q160.03474 309.6844 159.61287 310.075Q159.20662 310.46564 159.09724 311.23126L158.03474 311.04376Q158.22224 309.9969 158.90974 309.41876Q159.59724 308.825 160.61287 308.825Q161.316 308.825 161.90974 309.1375Q162.5035 309.4344 162.816 309.95Q163.1285 310.46564 163.1285 311.0594Q163.1285 311.60626 162.83162 312.075Q162.53474 312.52814 161.95662 312.79376Q162.70662 312.96564 163.1285 313.52814Q163.55037 314.075 163.55037 314.91876Q163.55037 316.04376 162.72224 316.825Q161.90974 317.60626 160.65974 317.60626Q159.53474 317.60626 158.78474 316.9344Q158.03474 316.2469 157.92537 315.1844Z" fill-rule="nonzero"/><path fill="#000000" d="M307.0 313.21564Q307.0 311.6844 307.3125 310.7625Q307.625 309.825 308.23438 309.325Q308.85938 308.825 309.79688 308.825Q310.48438 308.825 311.0 309.10626Q311.53125 309.3875 311.875 309.91876Q312.21875 310.4344 312.40625 311.1844Q312.59375 311.9344 312.59375 313.21564Q312.59375 314.73126 312.28125 315.65314Q311.98438 316.575 311.35938 317.09064Q310.75 317.59064 309.79688 317.59064Q308.5625 317.59064 307.84375 316.7Q307.0 315.6375 307.0 313.21564ZM308.07812 313.21564Q308.07812 315.325 308.57812 316.02814Q309.07812 316.73126 309.79688 316.73126Q310.53125 316.73126 311.01562 316.02814Q311.51562 315.325 311.51562 313.21564Q311.51562 311.09064 311.01562 310.40314Q310.53125 309.7 309.78125 309.7Q309.0625 309.7 308.625 310.3094Q308.07812 311.09064 308.07812 313.21564ZM314.59375 317.45L314.59375 316.2469L315.79688 316.2469L315.79688 317.45L314.59375 317.45ZM317.0 315.2L318.10938 315.10626Q318.23438 315.91876 318.67188 316.325Q319.125 316.73126 319.76562 316.73126Q320.51562 316.73126 321.04688 316.15314Q321.57812 315.575 321.57812 314.6375Q321.57812 313.73126 321.0625 313.21564Q320.5625 312.6844 319.73438 312.6844Q319.23438 312.6844 318.8125 312.91876Q318.40625 313.15314 318.17188 313.5125L317.1875 313.3875L318.01562 308.98126L322.29688 308.98126L322.29688 309.98126L318.85938 309.98126L318.40625 312.29376Q319.17188 311.7469 320.01562 311.7469Q321.14062 311.7469 321.90625 312.52814Q322.6875 313.3094 322.6875 314.54376Q322.6875 315.7 322.01562 316.5594Q321.1875 317.59064 319.76562 317.59064Q318.59375 317.59064 317.84375 316.9344Q317.10938 316.27814 317.0 315.2Z" fill-rule="nonzero"/><path fill="#000000" d="M466.07462 313.21564Q466.07462 311.6844 466.38712 310.7625Q466.69962 309.825 467.309 309.325Q467.934 308.825 468.8715 308.825Q469.559 308.825 470.07462 309.10626Q470.60587 309.3875 470.94962 309.91876Q471.29337 310.4344 471.48087 311.1844Q471.66837 311.9344 471.66837 313.21564Q471.66837 314.73126 471.35587 315.65314Q471.059 316.575 470.434 317.09064Q469.82462 317.59064 468.8715 317.59064Q467.63712 317.59064 466.91837 316.7Q466.07462 315.6375 466.07462 313.21564ZM467.15274 313.21564Q467.15274 315.325 467.65274 316.02814Q468.15274 316.73126 468.8715 316.73126Q469.60587 316.73126 470.09024 316.02814Q470.59024 315.325 470.59024 313.21564Q470.59024 311.09064 470.09024 310.40314Q469.60587 309.7 468.85587 309.7Q468.13712 309.7 467.69962 310.3094Q467.15274 311.09064 467.15274 313.21564ZM473.66837 317.45L473.66837 316.2469L474.8715 316.2469L474.8715 317.45L473.66837 317.45ZM476.13712 309.98126L476.13712 308.96564L481.69962 308.96564L481.69962 309.79376Q480.88712 310.66876 480.07462 312.1219Q479.27774 313.5594 478.84024 315.09064Q478.51212 316.16876 478.434 317.45L477.34024 317.45Q477.35587 316.4344 477.73087 314.9969Q478.1215 313.5594 478.82462 312.23126Q479.54337 310.90314 480.35587 309.98126L476.13712 309.98126Z" fill-rule="nonzero"/><path fill="#4285f4" d="M203.5 56.916668C203.5 56.364384 203.94771 55.916668 204.5 55.916668L214.5 55.916668C215.05229 55.916668 215.5 56.364384 215.5 56.916668L215.5 66.916664C215.5 67.46895 215.05229 67.916664 214.5 67.916664L204.5 67.916664C203.94771 67.916664 203.5 67.46895 203.5 66.916664Z" fill-rule="nonzero"/><path fill="#1a1a1a" d="M224.48438 65.916664L224.48438 57.322914L230.28125 57.322914L230.28125 58.33854L225.625 58.33854L225.625 60.99479L229.65625 60.99479L229.65625 62.010414L225.625 62.010414L225.625 65.916664L224.48438 65.916664ZM234.96875 65.916664L233.92188 65.916664L233.92188 59.197914Q233.53125 59.55729 232.90625 59.93229Q232.29688 60.291664 231.8125 60.46354L231.8125 59.447914Q232.6875 59.02604 233.34375 58.447914Q234.01562 57.854164 234.29688 57.291664L234.96875 57.291664L234.96875 65.916664Z" fill-rule="nonzero"/><path fill="#ea4335" d="M253.5 56.916668C253.5 56.364384 253.94771 55.916668 254.5 55.916668L264.5 55.916668C265.05228 55.916668 265.5 56.364384 265.5 56.916668L265.5 66.916664C265.5 67.46895 265.05228 67.916664 264.5 67.916664L254.5 67.916664C253.94771 67.916664 253.5 67.46895 253.5 66.916664Z" fill-rule="nonzero"/><path fill="#1a1a1a" d="M274.42188 65.916664L274.42188 57.322914L277.67188 57.322914Q278.51562 57.322914 278.96875 57.40104Q279.60938 57.510414 280.03125 57.80729Q280.46875 58.104164 280.71875 58.635414Q280.98438 59.166664 280.98438 59.80729Q280.98438 60.90104 280.28125 61.666664Q279.59375 62.416664 277.76562 62.416664L275.5625 62.416664L275.5625 65.916664L274.42188 65.916664ZM275.5625 61.416664L277.78125 61.416664Q278.89062 61.416664 279.34375 61.010414Q279.8125 60.58854 279.8125 59.83854Q279.8125 59.30729 279.53125 58.93229Q279.26562 58.541664 278.82812 58.416664Q278.53125 58.33854 277.76562 58.33854L275.5625 58.33854L275.5625 61.416664ZM282.28125 65.916664L282.28125 59.697914L283.23438 59.697914L283.23438 60.635414Q283.59375 59.979164 283.89062 59.77604Q284.20312 59.55729 284.57812 59.55729Q285.10938 59.55729 285.65625 59.885414L285.29688 60.86979Q284.90625 60.635414 284.53125 60.635414Q284.17188 60.635414 283.89062 60.854164Q283.625 61.05729 283.51562 61.43229Q283.32812 61.99479 283.32812 62.65104L283.32812 65.916664L282.28125 65.916664ZM290.54688 63.916664L291.64062 64.041664Q291.39062 64.99479 290.6875 65.52604Q289.98438 66.05729 288.90625 66.05729Q287.54688 66.05729 286.73438 65.21354Q285.9375 64.36979 285.9375 62.854164Q285.9375 61.291664 286.75 60.43229Q287.5625 59.55729 288.84375 59.55729Q290.09375 59.55729 290.875 60.40104Q291.67188 61.24479 291.67188 62.791664Q291.67188 62.885414 291.67188 63.072914L287.03125 63.072914Q287.09375 64.104164 287.60938 64.65104Q288.125 65.18229 288.90625 65.18229Q289.48438 65.18229 289.89062 64.885414Q290.3125 64.572914 290.54688 63.916664ZM287.09375 62.21354L290.5625 62.21354Q290.5 61.416664 290.17188 61.02604Q289.65625 60.416664 288.85938 60.416664Q288.125 60.416664 287.625 60.90104Q287.14062 61.385414 287.09375 62.21354ZM297.35938 63.635414L298.39062 63.77604Q298.21875 64.83854 297.51562 65.447914Q296.8125 66.05729 295.79688 66.05729Q294.51562 66.05729 293.73438 65.229164Q292.96875 64.385414 292.96875 62.822914Q292.96875 61.822914 293.29688 61.072914Q293.64062 60.30729 294.3125 59.93229Q295.0 59.55729 295.8125 59.55729Q296.8125 59.55729 297.45312 60.072914Q298.10938 60.572914 298.29688 61.52604L297.26562 61.68229Q297.125 61.05729 296.75 60.74479Q296.375 60.416664 295.84375 60.416664Q295.04688 60.416664 294.54688 60.99479Q294.04688 61.55729 294.04688 62.791664Q294.04688 64.05729 294.53125 64.61979Q295.01562 65.18229 295.78125 65.18229Q296.40625 65.18229 296.8125 64.80729Q297.23438 64.43229 297.35938 63.635414ZM299.29688 58.541664L299.29688 57.322914L300.35938 57.322914L300.35938 58.541664L299.29688 58.541664ZM299.29688 65.916664L299.29688 59.697914L300.35938 59.697914L300.35938 65.916664L299.29688 65.916664ZM301.875 64.05729L302.90625 63.90104Q303.0 64.52604 303.39062 64.854164Q303.79688 65.18229 304.53125 65.18229Q305.25 65.18229 305.59375 64.90104Q305.95312 64.604164 305.95312 64.197914Q305.95312 63.83854 305.64062 63.635414Q305.42188 63.49479 304.5625 63.27604Q303.40625 62.979164 302.95312 62.77604Q302.51562 62.55729 302.28125 62.18229Q302.04688 61.80729 302.04688 61.33854Q302.04688 60.93229 302.23438 60.572914Q302.42188 60.21354 302.75 59.979164Q303.0 59.80729 303.42188 59.68229Q303.84375 59.55729 304.34375 59.55729Q305.0625 59.55729 305.60938 59.77604Q306.17188 59.979164 306.4375 60.33854Q306.70312 60.697914 306.79688 61.291664L305.76562 61.43229Q305.70312 60.96354 305.35938 60.697914Q305.03125 60.416664 304.40625 60.416664Q303.6875 60.416664 303.375 60.666664Q303.0625 60.90104 303.0625 61.229164Q303.0625 61.43229 303.1875 61.58854Q303.32812 61.760414 303.59375 61.86979Q303.75 61.93229 304.53125 62.135414Q305.65625 62.447914 306.09375 62.635414Q306.53125 62.822914 306.78125 63.18229Q307.03125 63.541664 307.03125 64.08854Q307.03125 64.61979 306.71875 65.08854Q306.42188 65.541664 305.84375 65.80729Q305.26562 66.05729 304.53125 66.05729Q303.3125 66.05729 302.67188 65.55729Q302.04688 65.041664 301.875 64.05729ZM309.29688 58.541664L309.29688 57.322914L310.35938 57.322914L310.35938 58.541664L309.29688 58.541664ZM309.29688 65.916664L309.29688 59.697914L310.35938 59.697914L310.35938 65.916664L309.29688 65.916664ZM311.90625 62.80729Q311.90625 61.072914 312.85938 60.24479Q313.65625 59.55729 314.8125 59.55729Q316.09375 59.55729 316.90625 60.40104Q317.73438 61.229164 317.73438 62.71354Q317.73438 63.916664 317.375 64.604164Q317.01562 65.291664 316.3125 65.68229Q315.625 66.05729 314.8125 66.05729Q313.51562 66.05729 312.70312 65.229164Q311.90625 64.385414 311.90625 62.80729ZM312.98438 62.80729Q312.98438 63.99479 313.5 64.58854Q314.03125 65.18229 314.8125 65.18229Q315.60938 65.18229 316.125 64.58854Q316.64062 63.99479 316.64062 62.77604Q316.64062 61.61979 316.10938 61.02604Q315.59375 60.43229 314.8125 60.43229Q314.03125 60.43229 313.5 61.02604Q312.98438 61.604164 312.98438 62.80729ZM319.29688 65.916664L319.29688 59.697914L320.23438 59.697914L320.23438 60.572914Q320.92188 59.55729 322.21875 59.55729Q322.78125 59.55729 323.25 59.760414Q323.73438 59.96354 323.96875 60.291664Q324.20312 60.61979 324.29688 61.05729Q324.34375 61.354164 324.34375 62.08854L324.34375 65.916664L323.29688 65.916664L323.29688 62.135414Q323.29688 61.479164 323.17188 61.166664Q323.04688 60.854164 322.73438 60.666664Q322.42188 60.46354 322.0 60.46354Q321.32812 60.46354 320.82812 60.90104Q320.34375 61.322914 320.34375 62.510414L320.34375 65.916664L319.29688 65.916664Z" fill-rule="nonzero"/><path fill="#fbbc04" d="M341.5 56.916668C341.5 56.364384 341.94772 55.916668 342.5 55.916668L352.5 55.916668C353.05228 55.916668 353.5 56.364384 353.5 56.916668L353.5 66.916664C353.5 67.46895 353.05228 67.916664 352.5 67.916664L342.5 67.916664C341.94772 67.916664 341.5 67.46895 341.5 66.916664Z" fill-rule="nonzero"/><path fill="#1a1a1a" d="M362.4375 65.916664L362.4375 57.322914L366.25 57.322914Q367.40625 57.322914 368.0 57.55729Q368.59375 57.791664 368.95312 58.385414Q369.3125 58.96354 369.3125 59.666664Q369.3125 60.58854 368.71875 61.21354Q368.125 61.83854 366.89062 62.010414Q367.34375 62.229164 367.57812 62.43229Q368.07812 62.885414 368.51562 63.572914L370.01562 65.916664L368.57812 65.916664L367.45312 64.135414Q366.95312 63.354164 366.625 62.947914Q366.3125 62.541664 366.04688 62.385414Q365.79688 62.21354 365.53125 62.135414Q365.34375 62.104164 364.90625 62.104164L363.57812 62.104164L363.57812 65.916664L362.4375 65.916664ZM363.57812 61.11979L366.03125 61.11979Q366.79688 61.11979 367.23438 60.96354Q367.6875 60.791664 367.90625 60.447914Q368.14062 60.08854 368.14062 59.666664Q368.14062 59.05729 367.6875 58.666664Q367.25 58.27604 366.29688 58.27604L363.57812 58.27604L363.57812 61.11979ZM375.54688 63.916664L376.64062 64.041664Q376.39062 64.99479 375.6875 65.52604Q374.98438 66.05729 373.90625 66.05729Q372.54688 66.05729 371.73438 65.21354Q370.9375 64.36979 370.9375 62.854164Q370.9375 61.291664 371.75 60.43229Q372.5625 59.55729 373.84375 59.55729Q375.09375 59.55729 375.875 60.40104Q376.67188 61.24479 376.67188 62.791664Q376.67188 62.885414 376.67188 63.072914L372.03125 63.072914Q372.09375 64.104164 372.60938 64.65104Q373.125 65.18229 373.90625 65.18229Q374.48438 65.18229 374.89062 64.885414Q375.3125 64.572914 375.54688 63.916664ZM372.09375 62.21354L375.5625 62.21354Q375.5 61.416664 375.17188 61.02604Q374.65625 60.416664 373.85938 60.416664Q373.125 60.416664 372.625 60.90104Q372.14062 61.385414 372.09375 62.21354ZM382.35938 63.635414L383.39062 63.77604Q383.21875 64.83854 382.51562 65.447914Q381.8125 66.05729 380.79688 66.05729Q379.51562 66.05729 378.73438 65.229164Q377.96875 64.385414 377.96875 62.822914Q377.96875 61.822914 378.29688 61.072914Q378.64062 60.30729 379.3125 59.93229Q380.0 59.55729 380.8125 59.55729Q381.8125 59.55729 382.45312 60.072914Q383.10938 60.572914 383.29688 61.52604L382.26562 61.68229Q382.125 61.05729 381.75 60.74479Q381.375 60.416664 380.84375 60.416664Q380.04688 60.416664 379.54688 60.99479Q379.04688 61.55729 379.04688 62.791664Q379.04688 64.05729 379.53125 64.61979Q380.01562 65.18229 380.78125 65.18229Q381.40625 65.18229 381.8125 64.80729Q382.23438 64.43229 382.35938 63.635414ZM388.35938 65.15104Q387.76562 65.65104 387.21875 65.854164Q386.6875 66.05729 386.0625 66.05729Q385.03125 66.05729 384.48438 65.55729Q383.9375 65.05729 383.9375 64.27604Q383.9375 63.822914 384.14062 63.447914Q384.34375 63.05729 384.6875 62.83854Q385.03125 62.604164 385.45312 62.49479Q385.75 62.40104 386.39062 62.322914Q387.65625 62.18229 388.26562 61.96354Q388.26562 61.74479 388.26562 61.697914Q388.26562 61.041664 387.96875 60.77604Q387.5625 60.43229 386.76562 60.43229Q386.03125 60.43229 385.67188 60.697914Q385.3125 60.947914 385.14062 61.604164L384.10938 61.46354Q384.25 60.80729 384.57812 60.40104Q384.90625 59.99479 385.51562 59.77604Q386.125 59.55729 386.92188 59.55729Q387.71875 59.55729 388.21875 59.74479Q388.71875 59.93229 388.95312 60.21354Q389.1875 60.49479 389.28125 60.93229Q389.32812 61.197914 389.32812 61.90104L389.32812 63.30729Q389.32812 64.77604 389.39062 65.166664Q389.46875 65.55729 389.67188 65.916664L388.5625 65.916664Q388.40625 65.58854 388.35938 65.15104ZM388.26562 62.791664Q387.6875 63.02604 386.54688 63.197914Q385.89062 63.291664 385.625 63.416664Q385.35938 63.52604 385.20312 63.74479Q385.0625 63.96354 385.0625 64.24479Q385.0625 64.666664 385.375 64.947914Q385.70312 65.229164 386.3125 65.229164Q386.92188 65.229164 387.39062 64.96354Q387.875 64.697914 388.09375 64.229164Q388.26562 63.86979 388.26562 63.18229L388.26562 62.791664ZM391.26562 65.916664L391.26562 57.322914L392.32812 57.322914L392.32812 65.916664L391.26562 65.916664ZM394.26562 65.916664L394.26562 57.322914L395.32812 57.322914L395.32812 65.916664L394.26562 65.916664Z" fill-rule="nonzero"/><path fill="#757575" d="M19.51875 28.58125Q19.51875 25.01875 21.425 23.003124Q23.346874 20.971874 26.378124 20.971874Q28.3625 20.971874 29.940624 21.925Q31.534374 22.878124 32.3625 24.58125Q33.20625 26.26875 33.20625 28.409374Q33.20625 30.58125 32.33125 32.3Q31.45625 34.01875 29.83125 34.909374Q28.221874 35.8 26.3625 35.8Q24.346874 35.8 22.753124 34.83125Q21.159374 33.846874 20.33125 32.159374Q19.51875 30.45625 19.51875 28.58125ZM21.471874 28.6125Q21.471874 31.190624 22.8625 32.690624Q24.253124 34.175 26.346874 34.175Q28.4875 34.175 29.8625 32.675Q31.253124 31.159374 31.253124 28.39375Q31.253124 26.659374 30.659374 25.3625Q30.08125 24.05 28.940624 23.33125Q27.8 22.6125 26.378124 22.6125Q24.378124 22.6125 22.925 24.003124Q21.471874 25.378124 21.471874 28.6125ZM37.4875 35.55L35.8625 35.55L35.8625 21.2375L37.6125 21.2375L37.6125 26.346874Q38.7375 24.940624 40.45625 24.940624Q41.409374 24.940624 42.26875 25.33125Q43.128124 25.721874 43.675 26.425Q44.221874 27.1125 44.534374 28.096874Q44.846874 29.08125 44.846874 30.20625Q44.846874 32.878124 43.534374 34.33125Q42.221874 35.784374 40.378124 35.784374Q38.534374 35.784374 37.4875 34.253124L37.4875 35.55ZM37.471874 30.284374Q37.471874 32.14375 37.971874 32.9875Q38.815624 34.33125 40.221874 34.33125Q41.378124 34.33125 42.20625 33.33125Q43.05 32.33125 43.05 30.346874Q43.05 28.315624 42.2375 27.3625Q41.440624 26.39375 40.3 26.39375Q39.14375 26.39375 38.3 27.39375Q37.471874 28.39375 37.471874 30.284374ZM46.8625 23.26875L46.8625 21.2375L48.6125 21.2375L48.6125 23.26875L46.8625 23.26875ZM44.628124 39.58125L44.95625 38.08125Q45.4875 38.221874 45.8 38.221874Q46.33125 38.221874 46.596874 37.8625Q46.8625 37.503124 46.8625 36.08125L46.8625 25.175L48.6125 25.175L48.6125 36.1125Q48.6125 38.034374 48.1125 38.784374Q47.4875 39.753124 46.003124 39.753124Q45.3 39.753124 44.628124 39.58125ZM57.971874 32.20625L59.784374 32.440624Q59.3625 34.01875 58.190624 34.909374Q57.034374 35.784374 55.221874 35.784374Q52.95625 35.784374 51.6125 34.39375Q50.284374 32.9875 50.284374 30.45625Q50.284374 27.83125 51.628124 26.39375Q52.971874 24.940624 55.128124 24.940624Q57.20625 24.940624 58.51875 26.3625Q59.846874 27.76875 59.846874 30.346874Q59.846874 30.503124 59.83125 30.815624L52.096874 30.815624Q52.190624 32.51875 53.065624 33.425Q53.940624 34.33125 55.2375 34.33125Q56.20625 34.33125 56.878124 33.83125Q57.565624 33.315624 57.971874 32.20625ZM52.190624 29.3625L57.9875 29.3625Q57.878124 28.065624 57.33125 27.409374Q56.4875 26.39375 55.14375 26.39375Q53.940624 26.39375 53.1125 27.20625Q52.284374 28.003124 52.190624 29.3625ZM68.64375 31.753124L70.3625 31.971874Q70.08125 33.76875 68.90938 34.784374Q67.75313 35.784374 66.05 35.784374Q63.925 35.784374 62.628124 34.39375Q61.33125 33.003124 61.33125 30.409374Q61.33125 28.721874 61.878124 27.471874Q62.440624 26.20625 63.58125 25.58125Q64.72188 24.940624 66.06563 24.940624Q67.75313 24.940624 68.81563 25.8Q69.89375 26.659374 70.20625 28.221874L68.4875 28.4875Q68.25313 27.440624 67.62813 26.925Q67.00313 26.39375 66.12813 26.39375Q64.8 26.39375 63.971874 27.346874Q63.14375 28.3 63.14375 30.346874Q63.14375 32.440624 63.940624 33.39375Q64.7375 34.33125 66.03438 34.33125Q67.06563 34.33125 67.75313 33.70625Q68.45625 33.065624 68.64375 31.753124ZM75.70625 33.971874L75.95625 35.534374Q75.22188 35.690624 74.62813 35.690624Q73.675 35.690624 73.14375 35.39375Q72.62813 35.08125 72.40938 34.596874Q72.19063 34.096874 72.19063 32.51875L72.19063 26.55L70.90938 26.55L70.90938 25.175L72.19063 25.175L72.19063 22.6125L73.94063 21.55L73.94063 25.175L75.70625 25.175L75.70625 26.55L73.94063 26.55L73.94063 32.6125Q73.94063 33.3625 74.03438 33.58125Q74.12813 33.784374 74.33125 33.925Q74.55 34.05 74.94063 34.05Q75.22188 34.05 75.70625 33.971874ZM77.8625 35.55L77.8625 25.175L79.45625 25.175L79.45625 26.659374Q80.59688 24.940624 82.75313 24.940624Q83.69063 24.940624 84.47188 25.284374Q85.26875 25.6125 85.65938 26.159374Q86.05 26.70625 86.20625 27.45625Q86.3 27.95625 86.3 29.175L86.3 35.55L84.53438 35.55L84.53438 29.2375Q84.53438 28.159374 84.33125 27.628124Q84.12813 27.096874 83.59688 26.784374Q83.08125 26.471874 82.37813 26.471874Q81.25313 26.471874 80.44063 27.190624Q79.62813 27.89375 79.62813 29.878124L79.62813 35.55L77.8625 35.55ZM94.97188 32.20625L96.78438 32.440624Q96.3625 34.01875 95.19063 34.909374Q94.03438 35.784374 92.22188 35.784374Q89.95625 35.784374 88.6125 34.39375Q87.28438 32.9875 87.28438 30.45625Q87.28438 27.83125 88.62813 26.39375Q89.97188 24.940624 92.12813 24.940624Q94.20625 24.940624 95.51875 26.3625Q96.84688 27.76875 96.84688 30.346874Q96.84688 30.503124 96.83125 30.815624L89.09688 30.815624Q89.19063 32.51875 90.06563 33.425Q90.94063 34.33125 92.2375 34.33125Q93.20625 34.33125 93.87813 33.83125Q94.56563 33.315624 94.97188 32.20625ZM89.19063 29.3625L94.9875 29.3625Q94.87813 28.065624 94.33125 27.409374Q93.4875 26.39375 92.14375 26.39375Q90.94063 26.39375 90.1125 27.20625Q89.28438 28.003124 89.19063 29.3625ZM98.15938 32.45625L99.90938 32.175Q100.05 33.221874 100.72188 33.784374Q101.39375 34.33125 102.59688 34.33125Q103.8 34.33125 104.37813 33.846874Q104.97188 33.346874 104.97188 32.690624Q104.97188 32.096874 104.45625 31.753124Q104.09688 31.51875 102.65938 31.159374Q100.72188 30.659374 99.97188 30.315624Q99.2375 29.95625 98.84688 29.33125Q98.45625 28.690624 98.45625 27.925Q98.45625 27.2375 98.76875 26.64375Q99.09688 26.05 99.64375 25.659374Q100.05 25.3625 100.75313 25.159374Q101.47188 24.940624 102.28438 24.940624Q103.50313 24.940624 104.425 25.3Q105.34688 25.64375 105.78438 26.253124Q106.22188 26.846874 106.39375 27.846874L104.675 28.08125Q104.55 27.284374 103.9875 26.846874Q103.425 26.39375 102.40938 26.39375Q101.19063 26.39375 100.675 26.8Q100.15938 27.190624 100.15938 27.721874Q100.15938 28.065624 100.37813 28.346874Q100.58125 28.628124 101.05 28.815624Q101.31563 28.909374 102.59688 29.253124Q104.47188 29.753124 105.20625 30.08125Q105.94063 30.39375 106.3625 31.003124Q106.78438 31.596874 106.78438 32.503124Q106.78438 33.378124 106.26875 34.159374Q105.75313 34.940624 104.78438 35.3625Q103.81563 35.784374 102.59688 35.784374Q100.58125 35.784374 99.51875 34.940624Q98.45625 34.096874 98.15938 32.45625ZM108.15938 32.45625L109.90938 32.175Q110.05 33.221874 110.72188 33.784374Q111.39375 34.33125 112.59688 34.33125Q113.8 34.33125 114.37813 33.846874Q114.97188 33.346874 114.97188 32.690624Q114.97188 32.096874 114.45625 31.753124Q114.09688 31.51875 112.65938 31.159374Q110.72188 30.659374 109.97188 30.315624Q109.2375 29.95625 108.84688 29.33125Q108.45625 28.690624 108.45625 27.925Q108.45625 27.2375 108.76875 26.64375Q109.09688 26.05 109.64375 25.659374Q110.05 25.3625 110.75313 25.159374Q111.47188 24.940624 112.28438 24.940624Q113.50313 24.940624 114.425 25.3Q115.34688 25.64375 115.78438 26.253124Q116.22188 26.846874 116.39375 27.846874L114.675 28.08125Q114.55 27.284374 113.9875 26.846874Q113.425 26.39375 112.40938 26.39375Q111.19063 26.39375 110.675 26.8Q110.15938 27.190624 110.15938 27.721874Q110.15938 28.065624 110.37813 28.346874Q110.58125 28.628124 111.05 28.815624Q111.31563 28.909374 112.59688 29.253124Q114.47188 29.753124 115.20625 30.08125Q115.94063 30.39375 116.3625 31.003124Q116.78438 31.596874 116.78438 32.503124Q116.78438 33.378124 116.26875 34.159374Q115.75313 34.940624 114.78438 35.3625Q113.81563 35.784374 112.59688 35.784374Q110.58125 35.784374 109.51875 34.940624Q108.45625 34.096874 108.15938 32.45625ZM118.19063 31.253124L118.19063 29.4875L123.58125 29.4875L123.58125 31.253124L118.19063 31.253124ZM126.12813 35.55L126.12813 21.2375L132.47188 21.2375Q134.37813 21.2375 135.37813 21.628124Q136.37813 22.003124 136.97188 22.9875Q137.56563 23.95625 137.56563 25.14375Q137.56563 26.659374 136.58125 27.70625Q135.59688 28.753124 133.53438 29.034374Q134.28438 29.39375 134.675 29.753124Q135.50313 30.503124 136.25313 31.659374L138.7375 35.55L136.3625 35.55L134.45625 32.565624Q133.62813 31.284374 133.09688 30.596874Q132.56563 29.909374 132.12813 29.64375Q131.70625 29.3625 131.26875 29.253124Q130.94063 29.190624 130.22188 29.190624L128.01875 29.190624L128.01875 35.55L126.12813 35.55ZM128.01875 27.55L132.09688 27.55Q133.39375 27.55 134.1125 27.284374Q134.84688 27.01875 135.22188 26.425Q135.6125 25.83125 135.6125 25.14375Q135.6125 24.128124 134.87813 23.471874Q134.14375 22.815624 132.55 22.815624L128.01875 22.815624L128.01875 27.55ZM140.09688 35.55L140.09688 21.2375L145.4875 21.2375Q146.925 21.2375 147.675 21.3625Q148.72188 21.55 149.44063 22.05Q150.15938 22.534374 150.58125 23.425Q151.01875 24.315624 151.01875 25.378124Q151.01875 27.20625 149.84688 28.471874Q148.69063 29.721874 145.65938 29.721874L141.9875 29.721874L141.9875 35.55L140.09688 35.55ZM141.9875 28.034374L145.69063 28.034374Q147.51875 28.034374 148.28438 27.3625Q149.06563 26.675 149.06563 25.425Q149.06563 24.534374 148.6125 23.89375Q148.15938 23.253124 147.425 23.05Q146.94063 22.925 145.64375 22.925L141.9875 22.925L141.9875 28.034374ZM153.08125 35.55L153.08125 21.2375L155.01875 21.2375L162.53438 32.471874L162.53438 21.2375L164.34688 21.2375L164.34688 35.55L162.40938 35.55L154.89375 24.3L154.89375 35.55L153.08125 35.55Z" fill-rule="nonzero"/></svg>